<svg width="64" height="63" viewBox="0 0 64 63" fill="none" xmlns="http://www.w3.org/2000/svg">
<path d="M12.1148 59.6396V36.8086H1.91318C1.2378 36.8086 0.69043 37.3623 0.69043 38.0453V62.087C4.54568 61.5093 8.36119 60.6919 12.1148 59.6397V59.6396Z" fill="#AED905"/>
<path d="M4.55368 38.0454C4.55368 37.3623 5.10105 36.8087 5.77618 36.8087H1.91318C1.2378 36.8087 0.69043 37.3624 0.69043 38.0454V62.0871C1.98276 61.8937 3.27085 61.673 4.5538 61.4249L4.55368 38.0454ZM23.4101 55.6046V24.5391H13.2088C12.5337 24.5391 11.9858 25.0928 11.9858 25.7754V59.6397C15.6006 58.6259 19.4516 57.3097 23.4101 55.6046Z" fill="#88AB00"/>
<path d="M15.8501 25.7754C15.8501 25.0929 16.3975 24.5392 17.0727 24.5392H13.2095C12.5342 24.5392 11.9863 25.0929 11.9863 25.7754V59.6397C13.2826 59.2758 14.5708 58.8838 15.8501 58.4639V25.7754ZM34.7065 49.6358V12.2695H24.5048C23.8296 12.2695 23.2822 12.8228 23.2822 13.5058V55.6045C27.0302 53.9898 30.8745 52.0254 34.7065 49.6358Z" fill="#628C1B"/>
<path d="M27.1445 13.5063C27.1445 12.8233 27.692 12.27 28.3671 12.27H24.5039C23.8286 12.27 23.2812 12.8233 23.2812 13.5063V55.605C24.5832 55.0437 25.8713 54.4509 27.1445 53.8271V13.5063ZM46.001 41.0503V1.23637C46.001 0.55375 45.4535 0 44.7783 0H35.7993C35.124 0 34.5768 0.55375 34.5768 1.23625V49.6362C38.4345 47.2305 42.2797 44.3945 46.001 41.0503Z" fill="#2C6206"/>
<path d="M38.4403 1.23625C38.4403 0.55375 38.9878 0 39.6635 0H35.7998C35.1244 0 34.577 0.55375 34.577 1.23625V49.6362C35.8885 48.8182 37.1767 47.9635 38.4403 47.0732V1.23625Z" fill="#224E03"/>
<path d="M63.0682 28.1173H50.3183C49.9374 28.1173 49.743 28.5753 50.0077 28.8492L53.4711 32.4322C53.5461 32.51 53.5893 32.613 53.5923 32.7211C53.5953 32.8291 53.5578 32.9344 53.4871 33.0162C36.0599 53.127 13.648 59.4721 0.0184994 61.4468C-0.125638 61.4677 -0.25739 61.5399 -0.352616 61.6502C-0.447843 61.7604 -0.500166 61.9012 -0.5 62.0469C-0.5 62.3901 -0.215375 62.6665 0.127874 62.6544C34.7084 61.4214 56.1523 41.6827 58.8559 39.0582C58.9353 38.9813 59.0411 38.9379 59.1516 38.9368C59.2621 38.9357 59.3687 38.977 59.4496 39.0523L62.7743 42.1373C63.0506 42.394 63.4999 42.1978 63.4999 41.8208V28.5489C63.4999 28.4345 63.4544 28.3247 63.3735 28.2437C63.2925 28.1627 63.1827 28.1172 63.0682 28.1172V28.1173Z" fill="#FECA57"/>
<path d="M5.12 62.0468C5.11995 61.9012 5.17235 61.7604 5.26761 61.6502C5.36287 61.54 5.49462 61.4678 5.63875 61.4468C19.2681 59.4721 41.6801 53.1268 59.1075 33.0161C59.1781 32.9343 59.2155 32.8291 59.2125 32.7212C59.2095 32.6132 59.1663 32.5103 59.0913 32.4326L55.6284 28.8491C55.3634 28.5752 55.5576 28.1172 55.939 28.1172H50.3184C49.9375 28.1172 49.7431 28.5752 50.0078 28.8491L53.4712 32.4326C53.5462 32.5103 53.5894 32.6132 53.5924 32.7212C53.5954 32.8292 53.5579 32.9343 53.4873 33.0161C36.06 53.1269 13.648 59.4721 0.0185004 61.4467C-0.125638 61.4677 -0.25739 61.5399 -0.352616 61.6501C-0.447842 61.7603 -0.500166 61.9012 -0.5 62.0468C-0.5 62.3901 -0.215375 62.6664 0.127875 62.6543C1.81973 62.5935 3.50964 62.487 5.19575 62.3349C5.14689 62.2467 5.12076 62.1477 5.12 62.0468Z" fill="#F4B537"/>
</svg>
