<svg width="25" height="24" viewBox="0 0 25 24" fill="none" xmlns="http://www.w3.org/2000/svg">
<path d="M12.5 2.25C7.124 2.25 2.75 6.624 2.75 12C2.75 17.376 7.124 21.75 12.5 21.75C17.876 21.75 22.25 17.376 22.25 12C22.25 6.624 17.876 2.25 12.5 2.25ZM12.5 3.75C17.0645 3.75 20.75 7.4355 20.75 12C20.75 16.5645 17.0645 20.25 12.5 20.25C7.9355 20.25 4.25 16.5645 4.25 12C4.25 7.4355 7.9355 3.75 12.5 3.75ZM12.4295 7.5C9.9365 7.5 7.9295 9.507 7.9295 12C7.9295 14.493 9.9365 16.5 12.4295 16.5C14.2288 16.5 15.767 15.4215 16.484 13.8983L15.125 13.2653C14.642 14.295 13.631 15 12.4295 15C10.7218 15 9.4295 13.7078 9.4295 12C9.4295 10.2922 10.7218 9 12.4295 9C13.631 9 14.642 9.70575 15.125 10.7347L16.4847 10.1017C15.7662 8.5785 14.2288 7.5 12.4288 7.5H12.4295Z" fill="#CCCCCC"/>
</svg>
