<svg width="34" height="46" viewBox="0 0 34 46" fill="none" xmlns="http://www.w3.org/2000/svg">
<path fill-rule="evenodd" clip-rule="evenodd" d="M29.593 33.3279V33.2236C29.593 32.9261 29.5028 32.6356 29.3344 32.3904C29.1661 32.1451 28.9273 31.9567 28.6497 31.8498L27.4773 31.3986C27.2834 30.7817 27.0356 30.1831 26.7367 29.6097L27.2465 28.4589C27.3669 28.1871 27.4022 27.8853 27.3477 27.5931C27.2933 27.3009 27.1517 27.032 26.9415 26.8219L24.7886 24.669C24.5782 24.4585 24.3089 24.3168 24.0163 24.2625C23.7237 24.2082 23.4215 24.2439 23.1496 24.3648L21.9995 24.8762C21.4276 24.5781 20.8307 24.3308 20.2156 24.1369L19.764 22.9615C19.6573 22.6837 19.4688 22.4447 19.2235 22.2762C18.9782 22.1076 18.6876 22.0174 18.3899 22.0174H15.3446C15.0473 22.0174 14.757 22.1074 14.5119 22.2755C14.2667 22.4437 14.0783 22.6821 13.9712 22.9595L13.5171 24.1366C12.9015 24.3304 12.3042 24.5779 11.7319 24.8762L10.5818 24.3648C10.3099 24.2439 10.0077 24.2082 9.71512 24.2625C9.42253 24.3168 9.15327 24.4585 8.94286 24.669L6.78995 26.8219C6.57955 27.0323 6.43785 27.3016 6.38355 27.5942C6.32925 27.8867 6.36488 28.1889 6.48576 28.4608L6.99714 29.6109C6.6986 30.1839 6.4506 30.7818 6.25594 31.3979L5.08174 31.8498C4.80411 31.9567 4.56536 32.1451 4.39698 32.3904C4.22859 32.6356 4.13846 32.9261 4.13846 33.2236V33.3275C2.43219 33.3274 1.13427 33.3273 0.459016 33.3271C0.393633 33.3271 0.329006 33.3131 0.269459 33.2861C0.209912 33.2591 0.156818 33.2197 0.113727 33.1705C0.0706359 33.1213 0.0385417 33.0635 0.0195911 33.0009C0.00064038 32.9384 -0.00472984 32.8725 0.00383925 32.8076C1.15254 24.5192 8.26408 18.1364 16.8657 18.1364C25.4718 18.1364 32.5835 24.5193 33.7287 32.8077C33.7373 32.8727 33.7319 32.9387 33.7129 33.0013C33.6939 33.064 33.6617 33.1219 33.6186 33.1712C33.5754 33.2204 33.5222 33.2599 33.4626 33.2869C33.4029 33.3139 33.3382 33.3279 33.2727 33.3279H29.593ZM16.8657 17.2164C12.1258 17.2164 8.26204 13.3482 8.26204 8.60821C8.26204 3.86827 12.1258 0 16.8657 0C21.6102 0 25.4739 3.86827 25.4739 8.60821C25.4739 13.3482 21.6102 17.2164 16.8657 17.2164ZM19.1076 25.3571C20.1011 25.5932 21.0506 25.9866 21.9199 26.5225L23.7477 25.7098L25.9006 27.8627L25.091 29.6906C25.6274 30.5607 26.0209 31.5112 26.2564 32.506L28.121 33.2236V36.269L26.2564 36.9866C26.0202 37.9802 25.6246 38.9279 25.091 39.7989L25.9006 41.6267L23.7477 43.7796L21.9199 42.9699C21.0508 43.5064 20.1013 43.8999 19.1076 44.1353L18.3899 46H15.3446L14.6269 44.1353C13.6302 43.8992 12.6826 43.5036 11.8116 42.9699L9.98371 43.7796L7.8308 41.6267L8.64358 39.7989C8.10689 38.9309 7.71431 37.9802 7.47504 36.9866L5.61046 36.269V33.2236L7.47504 32.506C7.71297 31.5115 8.10741 30.5612 8.64358 29.6906L7.8308 27.8627L9.98371 25.7098L11.8116 26.5225C12.6809 25.9866 13.6303 25.5932 14.6239 25.3571L15.3446 23.4894H18.3899L19.1076 25.3571ZM16.8652 27.8247C13.0419 27.8247 9.94568 30.9209 9.94568 34.7443C9.94568 38.5676 13.0419 41.6678 16.8652 41.6678C20.6886 41.6678 23.7888 38.5676 23.7888 34.7443C23.7888 30.9209 20.6886 27.8247 16.8652 27.8247ZM12.9941 35.4656C12.8562 35.3275 12.7787 35.1403 12.7787 34.9452C12.7787 34.75 12.8562 34.5628 12.9941 34.4247C13.1322 34.2868 13.3194 34.2093 13.5145 34.2093C13.7097 34.2093 13.8969 34.2868 14.035 34.4247L15.4948 35.8845L19.7255 32.0467C19.8701 31.9156 20.0608 31.8473 20.2558 31.8568C20.4507 31.8663 20.6339 31.9528 20.7651 32.0972C20.8962 32.2419 20.9645 32.4326 20.955 32.6275C20.9455 32.8225 20.859 33.0057 20.7145 33.1369L15.9646 37.4459C15.8246 37.5728 15.6412 37.6411 15.4522 37.6365C15.2633 37.6319 15.0833 37.5548 14.9497 37.4212L12.9941 35.4656Z" fill="white"/>
</svg>
