<svg width="24" height="24" viewBox="0 0 24 24" fill="none" xmlns="http://www.w3.org/2000/svg">
<path d="M13.086 5.03332C13.1453 5.03332 13.1794 5.03591 13.1794 5.03591H14.4806L14.4739 6.58587H13.1814C12.4701 6.58587 12.4866 7.21565 12.4866 7.21565V9.67286H15.0033L14.652 11.2207H12.4784V18.9669H10.9851L10.9841 11.2207H9.00027L8.99629 9.67286H10.9848V7.26422C10.9851 5.16402 12.6672 5.03332 13.086 5.03332ZM13.086 4C12.7277 4 12.0277 4.0615 11.3645 4.47585C10.7367 4.86748 9.98854 5.66957 9.98854 7.26398V8.63929H8.99651C8.73168 8.63929 8.47782 8.74882 8.29048 8.9431C8.19791 9.03947 8.12461 9.15383 8.07476 9.27964C8.02491 9.40545 7.99951 9.54022 8.00001 9.67623L8.00399 11.2241C8.00599 11.7932 8.45168 12.2538 9.00051 12.2538H9.9878L9.9888 18.9667C9.9888 19.5373 10.435 20 10.9853 20H12.4786C13.0289 20 13.4751 19.5373 13.4751 18.9667V12.2538H14.6523C15.0945 12.2538 15.4838 11.9516 15.6084 11.5117L15.9597 9.96375C16.0481 9.65145 15.9893 9.31381 15.801 9.05366C15.7083 8.92502 15.588 8.82058 15.4495 8.74865C15.3111 8.67671 15.1583 8.63927 15.0035 8.63931H13.4833V7.61969L14.4741 7.61917C15.0224 7.61917 15.4681 7.15961 15.4706 6.59052L15.4773 5.093C15.4783 5.07398 15.4788 5.05495 15.4788 5.03591C15.4788 4.46526 15.0336 4.0026 14.4833 4.0026H13.2075C13.1789 4.00105 13.1375 4.00002 13.086 4Z" fill="white"/>
</svg>
