<svg width="24" height="24" viewBox="0 0 24 24" fill="none" xmlns="http://www.w3.org/2000/svg">
<path d="M12 2.91016C14.4497 2.91016 14.7515 2.92791 15.7101 2.96341C16.6509 2.99891 17.3077 3.15868 17.8935 3.38945C18.497 3.62022 18.9941 3.92199 19.4911 4.41903C19.9882 4.91607 20.2899 5.41311 20.5207 6.01667C20.7515 6.60246 20.9112 7.25927 20.9467 8.2001C20.9822 9.15868 21 9.46045 21 11.9102C21 14.3599 20.9822 14.6616 20.9467 15.6202C20.9112 16.561 20.7515 17.2178 20.5207 17.8036C20.2899 18.4072 19.9882 18.9042 19.4911 19.4013C18.9941 19.8983 18.497 20.2001 17.8935 20.4309C17.3077 20.6616 16.6509 20.8214 15.7101 20.8569C14.7515 20.8924 14.4497 20.9102 12 20.9102C9.5503 20.9102 9.24852 20.8924 8.28994 20.8569C7.34911 20.8214 6.69231 20.6616 6.10651 20.4309C5.50296 20.2001 5.00592 19.8983 4.50888 19.4013C4.01183 18.9042 3.71006 18.4072 3.47929 17.8036C3.24852 17.2178 3.08876 16.561 3.05325 15.6202C3.01775 14.6616 3 14.3599 3 11.9102C3 9.46045 3.01775 9.15868 3.05325 8.2001C3.08876 7.25927 3.24852 6.60246 3.47929 6.01667C3.71006 5.41311 4.01183 4.91607 4.50888 4.41903C5.00592 3.92199 5.50296 3.62022 6.10651 3.38945C6.69231 3.15868 7.34911 2.99891 8.28994 2.96341C9.24852 2.92791 9.5503 2.91016 12 2.91016ZM12 4.08175C9.44379 4.08175 9.14201 4.09951 8.14793 4.13501C7.22485 4.17051 6.71006 4.34803 6.37278 4.47229C5.50296 4.82732 4.91716 5.41311 4.56213 6.28294C4.43787 6.62022 4.26035 7.13501 4.22485 8.05809C4.18935 9.05217 4.1716 9.35394 4.1716 11.9102C4.1716 14.4664 4.18935 14.7681 4.22485 15.7622C4.26035 16.6853 4.43787 17.2001 4.56213 17.5374C4.91716 18.4072 5.50296 18.993 6.37278 19.348C6.71006 19.4723 7.22485 19.6498 8.14793 19.6853C9.14201 19.7208 9.44379 19.7386 12 19.7386C14.5562 19.7386 14.858 19.7208 15.8521 19.6853C16.7751 19.6498 17.2899 19.4723 17.6272 19.348C18.497 18.993 19.0828 18.4072 19.4379 17.5374C19.5621 17.2001 19.7396 16.6853 19.7751 15.7622C19.8107 14.7681 19.8284 14.4664 19.8284 11.9102C19.8284 9.35394 19.8107 9.05217 19.7751 8.05809C19.7396 7.13501 19.5621 6.62022 19.4379 6.28294C19.0828 5.41311 18.497 4.82732 17.6272 4.47229C17.2899 4.34803 16.7751 4.17051 15.8521 4.13501C14.858 4.09951 14.5562 4.08175 12 4.08175ZM12 15.5137C13.9882 15.5137 15.6036 13.8983 15.6036 11.9102C15.6036 9.92199 13.9882 8.30661 12 8.30661C10.0118 8.30661 8.39645 9.92199 8.39645 11.9102C8.39645 13.8983 10.0118 15.5137 12 15.5137ZM12 7.29477C14.5562 7.29477 16.6154 9.35394 16.6154 11.9102C16.6154 14.4664 14.5562 16.5255 12 16.5255C9.44379 16.5255 7.38462 14.4664 7.38462 11.9102C7.38462 9.35394 9.44379 7.29477 12 7.29477ZM17.8935 7.11726C17.8935 7.72081 17.3965 8.18235 16.7929 8.18235C16.1893 8.18235 15.7278 7.72081 15.7278 7.11726C15.7278 6.51371 16.1893 6.01667 16.7929 6.01667C17.3965 6.01667 17.8935 6.51371 17.8935 7.11726Z" fill="white"/>
</svg>
