<svg width="48" height="46" viewBox="0 0 48 46" fill="none" xmlns="http://www.w3.org/2000/svg">
<path d="M12.7633 31.6221C16.769 31.6221 20.0162 28.3748 20.0162 24.3691C20.0162 20.3635 16.769 17.1162 12.7633 17.1162C8.75762 17.1162 5.51038 20.3635 5.51038 24.3691C5.51038 28.3748 8.75762 31.6221 12.7633 31.6221Z" fill="white"/>
<path d="M35.2366 14.5058C39.2422 14.5058 42.4895 11.2586 42.4895 7.25292C42.4895 3.24724 39.2422 0 35.2366 0C31.2309 0 27.9836 3.24724 27.9836 7.25292C27.9836 11.2586 31.2309 14.5058 35.2366 14.5058Z" fill="white"/>
<path fill-rule="evenodd" clip-rule="evenodd" d="M43.8011 33.6951C43.8011 32.8093 44.5221 32.0926 45.4058 32.0926C46.2915 32.0926 47.0104 32.8135 47.0104 33.6993L47.0039 40.1221C46.9996 43.3678 44.368 45.9993 41.1203 45.9993H29.3487C28.463 45.9993 27.7441 45.2804 27.7441 44.3946C27.7441 43.5089 28.463 42.79 29.3487 42.79H41.1203C42.5965 42.79 43.7926 41.594 43.7947 40.1177L43.8011 33.6951ZM4.20962 12.3043C4.20962 13.1901 3.48865 13.9069 2.60289 13.9069C1.71714 13.9069 1.00036 13.1859 1.00036 12.3001L1.00682 5.87735C1.00892 2.63159 3.64261 0 6.89038 0H22.9302C23.816 0 24.5348 0.718874 24.5348 1.60463C24.5348 2.49038 23.816 3.20926 22.9302 3.20926H6.89038C5.41412 3.20926 4.21818 4.4052 4.216 5.88154L4.20962 12.3043ZM19.7125 30.6848C22.635 32.8286 24.5349 36.2882 24.5349 40.1864C24.5349 41.853 23.4844 43.3058 21.5524 44.3049C19.4194 45.4089 16.0946 45.9994 12.7634 45.9994C9.43001 45.9994 6.10522 45.4089 3.97209 44.3049C2.04016 43.3058 0.989624 41.853 0.989624 40.1864C0.989624 36.2882 2.8895 32.8286 5.81207 30.6848C7.53223 32.5761 10.0098 33.7614 12.7634 33.7614C15.5148 33.7615 17.9944 32.5762 19.7125 30.6848ZM42.1879 13.5687C45.1105 15.7125 47.0104 19.1721 47.0104 23.0702C47.0104 24.737 45.9598 26.1896 44.0279 27.1887C41.8949 28.2927 38.57 28.8832 35.2366 28.8832C31.9055 28.8832 28.5806 28.2927 26.4476 27.1887C24.5156 26.1896 23.4651 24.7369 23.4651 23.0702C23.4651 19.1721 25.365 15.7124 28.2875 13.5687C30.0056 15.4601 32.4852 16.6453 35.2366 16.6453C37.9902 16.6453 40.4678 15.4601 42.1879 13.5687Z" fill="white"/>
</svg>
