<svg width="60" height="64" viewBox="0 0 60 64" fill="none" xmlns="http://www.w3.org/2000/svg">
<path d="M53.9108 32C53.9108 31.0583 53.8557 30.1297 53.7495 29.2166C53.6127 28.0425 54.0779 26.8784 54.9665 26.0988L58.6245 22.8895C59.8661 21.8003 60.1451 19.9763 59.286 18.5656L55.3735 12.1424C54.5144 10.7318 52.7656 10.1429 51.2282 10.7464L46.6682 12.5361C45.5645 12.9693 44.324 12.8176 43.3408 12.1551C42.2797 11.4402 41.1628 10.8117 40.001 10.2758C38.9271 9.78046 38.1559 8.80075 37.9522 7.63583L37.1093 2.81424C36.8248 1.18714 35.4122 0 33.7605 0H26.2396C24.5879 0 23.1753 1.18714 22.8909 2.81412L22.048 7.6357C21.8443 8.80063 21.0732 9.78046 19.9992 10.2756C18.8374 10.8116 17.7205 11.44 16.6594 12.155C15.6761 12.8173 14.4356 12.969 13.3321 12.536L8.77188 10.7462C7.23437 10.1429 5.48567 10.7318 4.62656 12.1423L0.714279 18.5655C-0.144827 19.9762 0.134138 21.8002 1.37574 22.8894L5.03378 26.0987C5.92237 26.8782 6.38757 28.0424 6.25078 29.2165C6.03543 31.0658 6.03543 32.9339 6.25078 34.7832C6.38757 35.9573 5.92237 37.1215 5.03378 37.9011L1.37574 41.1103C0.134138 42.1996 -0.144827 44.0236 0.714279 45.4342L4.62656 51.8574C5.48567 53.2681 7.2345 53.857 8.77188 53.2535L13.3319 51.4638C14.4356 51.0306 15.6761 51.1824 16.6593 51.8448C17.7204 52.5597 18.8373 53.1882 19.9991 53.7241C21.0731 54.2194 21.8442 55.1991 22.0479 56.3641L22.8908 61.1856C23.1753 62.8129 24.5879 63.498 26.2396 63.498H33.7605C35.4122 63.498 36.8248 62.8129 37.1092 61.1859L37.9521 56.3643C38.1558 55.1994 38.9269 54.2195 40.0009 53.7244C41.1627 53.1884 42.2796 52.56 43.3407 51.845C44.324 51.1827 45.5645 51.031 46.668 51.464L51.2281 53.2538C52.7656 53.8573 54.5143 53.2682 55.3734 51.8577L59.2857 45.4345C60.1448 44.0238 59.8658 42.1998 58.6242 41.1106L54.9662 37.9013C54.0776 37.1218 53.6124 35.9576 53.7492 34.7835C53.857 33.8596 53.911 32.9302 53.9108 32Z" fill="url(#paint0_linear_2001_696)"/>
<path d="M30.0001 51.5455C40.7946 51.5455 49.5453 42.7948 49.5453 32.0003C49.5453 21.2058 40.7946 12.4551 30.0001 12.4551C19.2055 12.4551 10.4548 21.2058 10.4548 32.0003C10.4548 42.7948 19.2055 51.5455 30.0001 51.5455Z" fill="url(#paint1_linear_2001_696)"/>
<path opacity="0.5" d="M33.7605 64.0001C35.4122 64.0001 36.8249 62.813 37.1092 61.186L37.9522 56.3644C38.1558 55.1995 38.927 54.2196 40.0009 53.7245C41.1627 53.1885 42.2796 52.5601 43.3407 51.8451C44.3241 51.1828 45.5645 51.0311 46.6681 51.4641L51.2281 53.2539C52.7657 53.8574 54.5144 53.2683 55.3735 51.8578L59.2857 45.4346C60.1449 44.0239 59.8659 42.1999 58.6243 41.1107L54.9662 37.9014C54.0777 37.1219 53.6125 35.9577 53.7492 34.7836C53.813 34.2362 53.8559 33.6825 53.882 33.1245L41.8352 21.0777C41.0847 20.2647 40.2529 19.5308 39.3528 18.8875C38.625 18.3676 37.6133 18.8943 37.6133 19.7886V30.4193C37.6131 30.9568 37.493 31.4875 37.2619 31.9728C37.0309 32.4581 36.6946 32.8858 36.2775 33.2249C36.1198 33.0733 22.2518 19.2295 22.1363 19.0897C21.7894 18.6703 21.1458 18.782 20.6385 19.1448C16.5475 22.0716 14.1359 26.6148 14.1455 32.0298C14.1538 36.6919 15.885 40.8815 19.0488 43.8147L22.5123 47.2906L22.6378 55.3779C22.6378 57.325 22.5554 59.2684 22.8907 61.1864C23.1753 62.813 24.588 64.0001 26.2397 64.0001H33.7605Z" fill="url(#paint2_linear_2001_696)"/>
<path opacity="0.7" d="M59.2856 45.4332L55.3741 51.8571C54.5145 53.2676 52.7651 53.8562 51.2279 53.2538L46.6676 51.4631C45.5645 51.0301 44.3234 51.182 43.3408 51.8445C42.2794 52.5595 41.1623 53.1881 40.0003 53.7244C38.9273 54.2188 38.1556 55.1989 37.9523 56.3634L37.109 61.186C36.8241 62.8124 35.4124 63.6231 33.7609 63.6231H26.239C25.4133 63.6231 24.6478 63.3269 24.053 62.8262C23.7493 62.5714 23.4908 62.6405 23.2913 62.2929C23.792 62.5815 24.3717 62.7446 24.9841 62.7446H32.506C34.1575 62.7446 35.5692 61.5575 35.8541 59.9311C36.021 58.9724 36.1477 58.0061 36.2318 57.0373C36.3159 56.0685 36.3586 55.0947 36.3586 54.1222V44.9401C41.4133 42.2232 44.8505 36.8849 44.8505 30.7446C44.8505 26.6223 43.3019 22.8613 40.7532 20.0127C41.1309 20.349 41.4911 20.7041 41.8349 21.0769L53.882 33.1239C53.8557 33.6823 53.813 34.2358 53.749 34.7829C53.6122 35.9575 54.0778 37.1208 54.9662 37.9013L58.6243 41.1101C59.8654 42.1994 60.1452 44.0227 59.2856 45.4332Z" fill="url(#paint3_linear_2001_696)"/>
<path d="M37.1092 61.1859C37.4445 59.268 37.6131 57.3246 37.6131 55.3775V42.0811H22.387V55.3775C22.3869 57.3246 22.5555 59.268 22.8908 61.1859C23.1753 62.8129 24.5879 64 26.2396 64H33.7605C35.4122 64 36.8249 62.8129 37.1092 61.1859Z" fill="url(#paint4_linear_2001_696)"/>
<path d="M22.387 46.2003L37.1462 60.9595C37.4564 59.115 37.6125 57.2479 37.6131 55.3775V42.0811H22.387V46.2003Z" fill="url(#paint5_linear_2001_696)"/>
<path d="M46.1055 32C46.1055 40.8948 38.895 48.1053 30.0002 48.1054C21.1055 48.1056 13.9105 40.9241 13.8947 32.0294C13.885 26.6144 16.5477 21.8201 20.6386 18.8933C21.3698 18.3703 22.3865 18.8898 22.3865 19.7887V30.419C22.3865 31.0542 22.5537 31.6782 22.8713 32.2283C23.1889 32.7785 23.6457 33.2353 24.1958 33.553L28.1905 35.8595C28.7407 36.1771 29.3648 36.3444 30 36.3444C30.6353 36.3444 31.2594 36.1771 31.8095 35.8595L35.8043 33.553C36.3544 33.2353 36.8112 32.7785 37.1288 32.2284C37.4464 31.6782 37.6136 31.0542 37.6136 30.419V19.7883C37.6136 18.8941 38.6253 18.3674 39.353 18.8872C43.4415 21.8082 46.1055 26.5933 46.1055 32Z" fill="url(#paint6_linear_2001_696)"/>
<path d="M18.0814 33.3565C18.0814 34.3509 18.3432 35.3278 18.8404 36.189C19.3376 37.0502 20.0527 37.7653 20.9139 38.2626L27.1674 41.8733C28.0287 42.3706 29.0056 42.6323 30.0001 42.6323C30.9946 42.6323 31.9716 42.3706 32.8328 41.8733L39.0863 38.2626C39.9475 37.7653 40.6627 37.0502 41.1598 36.189C41.657 35.3278 41.9188 34.3509 41.9188 33.3565V21.1702C41.1468 20.3204 40.2868 19.5552 39.353 18.8873C38.6253 18.3673 37.6136 18.894 37.6136 19.7884V30.419C37.6136 31.0543 37.4464 31.6783 37.1288 32.2284C36.8112 32.7785 36.3544 33.2354 35.8043 33.553L31.8095 35.8596C31.2594 36.1772 30.6353 36.3444 30 36.3444C29.3648 36.3444 28.7407 36.1772 28.1905 35.8596L24.1958 33.553C23.6457 33.2354 23.1889 32.7786 22.8713 32.2284C22.5537 31.6783 22.3865 31.0543 22.3865 30.419V19.7888C22.3865 18.8898 21.3698 18.3704 20.6387 18.8934C19.7082 19.5598 18.8509 20.3229 18.0813 21.17L18.0814 33.3565Z" fill="url(#paint7_linear_2001_696)"/>
<defs>
<linearGradient id="paint0_linear_2001_696" x1="13.8623" y1="15.8622" x2="47.6322" y2="49.6321" gradientUnits="userSpaceOnUse">
<stop stop-color="#88AB00"/>
<stop offset="1" stop-color="#3E5409"/>
</linearGradient>
<linearGradient id="paint1_linear_2001_696" x1="52.0606" y1="54.0609" x2="6.17348" y2="8.17373" gradientUnits="userSpaceOnUse">
<stop stop-color="#88AB00"/>
<stop offset="1" stop-color="#59823F"/>
</linearGradient>
<linearGradient id="paint2_linear_2001_696" x1="32.8215" y1="41.6468" x2="15" y2="26.5" gradientUnits="userSpaceOnUse">
<stop stop-color="#88AB00"/>
<stop offset="0.563" stop-color="#677823"/>
<stop offset="1" stop-color="#232909"/>
</linearGradient>
<linearGradient id="paint3_linear_2001_696" x1="50.5425" y1="50.2263" x2="32.8483" y2="41.693" gradientUnits="userSpaceOnUse">
<stop stop-color="#94B903"/>
<stop offset="0.563" stop-color="#628C1B"/>
<stop offset="1" stop-color="#121B03"/>
</linearGradient>
<linearGradient id="paint4_linear_2001_696" x1="29.4399" y1="51.2583" x2="39.0438" y2="60.8622" gradientUnits="userSpaceOnUse">
<stop stop-color="#E3E5E4"/>
<stop offset="1" stop-color="#CBD0E4"/>
</linearGradient>
<linearGradient id="paint5_linear_2001_696" x1="34.6751" y1="54.7211" x2="28.317" y2="40.3316" gradientUnits="userSpaceOnUse">
<stop stop-color="#CBD0E4" stop-opacity="0"/>
<stop offset="1" stop-color="#6A7D83"/>
</linearGradient>
<linearGradient id="paint6_linear_2001_696" x1="24.0999" y1="26.1041" x2="45.1303" y2="47.1345" gradientUnits="userSpaceOnUse">
<stop stop-color="#E3E5E4"/>
<stop offset="1" stop-color="#CBD0E4"/>
</linearGradient>
<linearGradient id="paint7_linear_2001_696" x1="38.9412" y1="37.3648" x2="15.0978" y2="13.5213" gradientUnits="userSpaceOnUse">
<stop stop-color="#E3E5E4"/>
<stop offset="1" stop-color="#CBD0E4"/>
</linearGradient>
</defs>
</svg>
