<svg width="62" height="58" viewBox="0 0 62 58" fill="none" xmlns="http://www.w3.org/2000/svg">
<path d="M55.1468 4.14922C57.7115 2.66593 59.7924 3.85463 59.8009 6.80804L59.848 23.2918C59.8564 26.2452 57.7877 29.8433 55.224 31.3276L11.111 56.8542C8.54631 58.3375 6.46442 57.1393 6.45595 54.1869L6.4089 37.7022C6.40137 34.7497 8.46913 31.1591 11.0329 29.6758L55.1468 4.14922Z" fill="#173303"/>
<path d="M59.848 23.2861C59.8602 26.2509 57.7915 29.849 55.224 31.3238L11.1035 56.856C8.54823 58.344 6.46729 57.1365 6.45411 54.185L6.42023 43.8141C7.60046 43.7652 8.7807 43.705 9.97411 43.6193C35.7755 41.7652 55.9788 30.1652 55.0903 17.7228C54.8231 13.9657 52.6687 10.5511 49.0668 7.67109L55.1515 4.14638C57.7078 2.67062 59.7887 3.85462 59.8009 6.8052L59.848 23.2861Z" fill="#59823F"/>
<path d="M9.03102 57.8695C8.54208 57.8749 8.06046 57.7505 7.63526 57.509C6.63667 56.9349 6.08326 55.7556 6.07949 54.1867L6.03243 37.7029C6.02396 34.6375 8.18302 30.8897 10.8447 29.349L54.9576 3.82337C56.3223 3.03372 57.6249 2.91607 58.6254 3.49113C59.6221 4.06431 60.1736 5.24172 60.1783 6.8069L60.2235 23.2907C60.2329 26.3617 58.0738 30.1123 55.4122 31.653L11.2993 57.1796C10.5068 57.638 9.73502 57.8695 9.03102 57.8695ZM55.335 4.47466L11.2221 30.0012C8.76843 31.4215 6.77785 34.8756 6.78632 37.701L6.83243 54.1857C6.8362 55.4732 7.25502 56.422 8.01079 56.8568C8.76938 57.2925 9.80279 57.1749 10.9218 56.5274L55.0348 31.0017C57.4894 29.5815 59.479 26.1236 59.4715 23.2925L59.4244 6.80878C59.4207 5.52407 59.0037 4.57819 58.2498 4.14431C57.4931 3.70854 56.4569 3.82431 55.335 4.47466Z" fill="#59823F"/>
<path d="M1.25879 34.7031L1.30773 51.1831C1.31997 52.6589 1.83102 53.696 2.67055 54.1836L7.80655 57.1718C6.97832 56.6956 6.45597 55.6593 6.45597 54.1836L6.40702 37.7036C6.40702 36.3699 6.84185 34.9102 7.5402 33.5671L2.39197 30.5789C1.69455 31.9172 1.25879 33.3713 1.25879 34.7031Z" fill="#F4C531"/>
<path d="M7.80656 57.549C7.73187 57.5495 7.65876 57.5275 7.59668 57.486L2.48232 54.509C1.49597 53.9359 0.944442 52.7556 0.932207 51.1867L0.882324 34.7039V34.7029C0.882324 33.3693 1.28891 31.8831 2.05691 30.4055C2.08055 30.3604 2.11303 30.3206 2.15242 30.2884C2.1918 30.2562 2.23728 30.2322 2.28614 30.218C2.33499 30.2038 2.38621 30.1995 2.43674 30.2055C2.48727 30.2116 2.53607 30.2277 2.58021 30.253L7.72844 33.2422C7.81205 33.2908 7.87374 33.3697 7.90073 33.4626C7.92771 33.5555 7.91792 33.6552 7.87338 33.741C7.17032 35.0935 6.7835 36.5015 6.7835 37.7034L6.8315 54.1824C6.8315 55.4408 7.24938 56.4055 7.97691 56.8356L7.99574 56.846C8.06739 56.8875 8.12333 56.9516 8.15489 57.0281C8.18646 57.1047 8.19189 57.1896 8.17034 57.2696C8.14879 57.3495 8.10147 57.4202 8.0357 57.4705C7.96993 57.5209 7.88939 57.5491 7.80656 57.549ZM1.63527 34.7029L1.68421 51.1829C1.69362 52.4723 2.11244 53.4238 2.86068 53.8587L6.3515 55.8907C6.16367 55.3417 6.07136 54.7645 6.07856 54.1843L6.03056 37.7043C6.03056 36.462 6.37974 35.0888 7.04421 33.7166L2.54915 31.1067C1.95809 32.3471 1.63621 33.6102 1.63527 34.7029Z" fill="#59823F"/>
<path d="M53.3003 0.829986C52.4608 0.330221 51.2928 0.402692 50.0024 1.14716L5.88385 26.6775C4.4815 27.4945 3.23915 28.9505 2.39209 30.5796L7.54033 33.5679C8.3855 31.9396 9.62409 30.4874 11.0321 29.678L55.1507 4.14763C56.4401 3.4041 57.609 3.33069 58.4486 3.81822L53.3003 0.829986Z" fill="#FFD63C"/>
<path d="M7.53926 33.9439C7.47312 33.944 7.40815 33.9265 7.35103 33.8931L2.20279 30.9049C2.11902 30.8564 2.05713 30.7776 2.02997 30.6847C2.0028 30.5918 2.01245 30.492 2.05691 30.4061C2.97644 28.6395 4.30256 27.1618 5.69456 26.3515L49.8141 0.821114C51.191 0.0267609 52.4964 -0.0871215 53.4913 0.504879L58.6376 3.49217C58.8174 3.59664 58.8786 3.82723 58.7741 4.007C58.7493 4.04987 58.7164 4.08742 58.6771 4.11751C58.6378 4.14759 58.5929 4.16961 58.5451 4.18229C58.4972 4.19497 58.4473 4.19807 58.3983 4.19141C58.3492 4.18475 58.302 4.16845 58.2593 4.14347C57.5035 3.70394 56.4673 3.82253 55.3379 4.47288L11.2202 30.0042C9.94679 30.7364 8.72797 32.0983 7.87338 33.7425C7.84144 33.8035 7.79343 33.8546 7.73454 33.8903C7.67564 33.926 7.60811 33.9448 7.53926 33.9449V33.9439ZM2.89644 30.4371L7.39338 33.047C8.29973 31.4329 9.54303 30.0983 10.8447 29.3501L54.9623 3.82158C55.5289 3.49406 56.0851 3.28229 56.6122 3.18723L53.111 1.15429L53.1082 1.15241C52.3581 0.70629 51.3218 0.820173 50.1906 1.47241L6.07197 27.0037C4.88326 27.6964 3.73879 28.935 2.89644 30.4371Z" fill="#59823F"/>
<path d="M44.2442 36.2682C44.3364 36.2155 44.4296 36.1741 44.5256 36.1458L58.4315 32.0404C59.3124 31.7816 59.6221 32.8649 58.9821 33.9717L56.3063 38.6061C55.8527 39.392 55.8545 40.24 56.311 40.5007L60.3967 42.8197C60.8531 43.0795 60.856 43.9275 60.4023 44.7134L58.5811 47.8588C58.3543 48.2512 58.056 48.5552 57.7576 48.7265C57.4593 48.8988 57.1609 48.9402 56.9322 48.8112L52.855 46.4865C52.6263 46.3567 52.328 46.3981 52.0296 46.5712C51.7303 46.7425 51.4329 47.0456 51.2061 47.4381L48.5369 52.0687C48.3044 52.4724 48.0098 52.7661 47.719 52.9345C47.2108 53.2263 46.7157 53.135 46.5811 52.5628L43.1204 38.5788C42.9388 37.8164 43.5214 36.6851 44.2442 36.2682Z" fill="#59823F"/>
<path d="M60.4042 44.7082L58.5849 47.8583C58.3825 48.2117 58.0977 48.511 57.7548 48.7307C57.4564 48.9002 57.1581 48.9434 56.935 48.806L52.8597 46.486C52.6244 46.358 52.327 46.4013 52.0287 46.5707C51.7313 46.7402 51.4329 47.0498 51.2099 47.4329L48.5388 52.0719C48.343 52.4236 48.0613 52.7199 47.72 52.9331C47.208 53.2315 46.7186 53.1355 46.5812 52.5613L43.1214 38.5802C42.952 37.846 43.4724 36.7825 44.1435 36.3354C44.5049 40.7185 48.4212 44.166 53.1995 44.166C55.4659 44.166 57.5524 43.3783 59.1383 42.102L60.3939 42.8145C60.8513 43.0809 60.8513 43.9317 60.4042 44.7091V44.7082Z" fill="#E9EDF4"/>
<path d="M47.1872 53.4727C47.0479 53.4727 46.9142 53.4463 46.7919 53.3927C46.5029 53.2684 46.2987 53.004 46.2149 52.6491L42.7552 38.6698C42.5387 37.7588 43.1599 36.46 44.0559 35.9423C44.1754 35.8727 44.2987 35.82 44.4211 35.7842L58.326 31.6797C58.7749 31.548 59.1815 31.66 59.4394 31.9875C59.8272 32.4807 59.7745 33.3531 59.3086 34.1597L56.6328 38.795C56.3928 39.211 56.2902 39.6741 56.3721 39.9753C56.3909 40.043 56.4276 40.1324 56.4982 40.1729L60.5829 42.492C60.8182 42.6256 60.9848 42.8515 61.0648 43.147C61.2003 43.6458 61.0742 44.3018 60.7298 44.9004L58.9076 48.0477C58.6563 48.4835 58.3147 48.8402 57.9467 49.0529C57.5213 49.2985 57.0846 49.3287 56.7476 49.1376L52.6686 46.8138C52.5726 46.7574 52.4032 46.7894 52.2178 46.8967C51.9665 47.0416 51.7171 47.308 51.5335 47.6261L48.8643 52.2567C48.6121 52.6934 48.2714 53.0501 47.9081 53.26C47.6634 53.4011 47.4159 53.4727 47.1872 53.4727ZM58.6799 32.379C58.6422 32.379 58.5952 32.3856 58.5368 32.4025L44.6309 36.508C44.5651 36.5268 44.4992 36.555 44.4323 36.5945C43.8347 36.939 43.3481 37.915 43.4855 38.4929L46.9453 52.4731C46.9754 52.5983 47.0234 52.6745 47.0893 52.7028C47.1881 52.7451 47.3566 52.7094 47.5307 52.6087C47.7811 52.4637 48.0229 52.2049 48.2102 51.8811L50.8794 47.2505C51.1307 46.8148 51.4723 46.4581 51.8394 46.2454C52.2667 45.9988 52.7043 45.9696 53.0403 46.1607L57.1185 48.4844C57.2145 48.5409 57.3839 48.508 57.5683 48.4016C57.8206 48.2557 58.07 47.9903 58.2535 47.6713L60.0756 44.5249C60.3156 44.1098 60.4173 43.6458 60.3363 43.3447C60.3175 43.2769 60.2799 43.1884 60.2102 43.147L56.1246 40.828C55.8893 40.6943 55.7236 40.4675 55.6436 40.1729C55.5081 39.6731 55.6342 39.0171 55.9796 38.4185L58.6554 33.7842C59.0168 33.1583 58.9839 32.6294 58.8455 32.4534C58.8267 32.4308 58.7872 32.379 58.6799 32.379Z" fill="#59823F"/>
<path d="M40.4447 37.0394L43.9139 51.0206C43.9675 51.2446 44.0739 51.3933 44.2122 51.478L46.8889 53.0187C46.7402 52.934 46.6339 52.7844 46.5802 52.5613L43.1224 38.5801C43.0273 38.1754 43.1487 37.6719 43.3859 37.2239L40.7129 35.6794C40.4729 36.1284 40.3487 36.6338 40.4447 37.0394Z" fill="#FFD63C"/>
<path d="M46.888 53.3953C46.8229 53.3952 46.7589 53.378 46.7026 53.3454C46.6997 53.3454 46.6979 53.3435 46.696 53.3426L44.024 51.8047C43.8536 51.7002 43.6409 51.4988 43.5477 51.1082L40.0795 37.1317V37.128C39.9675 36.6602 40.0786 36.0673 40.3807 35.5026C40.4046 35.4581 40.4371 35.4189 40.4764 35.3872C40.5157 35.3556 40.561 35.3321 40.6095 35.3182C40.658 35.3044 40.7088 35.3004 40.7589 35.3065C40.809 35.3126 40.8574 35.3287 40.9012 35.3539L43.5741 36.8983C43.6585 36.9471 43.7207 37.0268 43.7476 37.1205C43.7744 37.2143 43.7639 37.3148 43.7181 37.4009C43.5063 37.8 43.4207 38.2084 43.4884 38.4946L46.9454 52.471C46.9849 52.6329 47.0461 52.6762 47.0715 52.6903L47.0772 52.6931C47.1492 52.7345 47.2056 52.7984 47.2375 52.8751C47.2694 52.9518 47.275 53.0369 47.2535 53.1171C47.2321 53.1973 47.1847 53.2682 47.1187 53.3187C47.0528 53.3692 46.972 53.3964 46.8889 53.3962L46.888 53.3953ZM40.8108 36.951L44.279 50.9294C44.2988 51.0103 44.3355 51.112 44.4099 51.1562L46.0833 52.12L42.7562 38.6706C42.6668 38.2913 42.7204 37.8348 42.9002 37.3774L40.887 36.2141C40.7929 36.4889 40.7647 36.7496 40.8108 36.9501V36.951Z" fill="#59823F"/>
<path d="M56.312 30.5387C56.1632 30.454 55.9825 30.4324 55.7585 30.5068L41.8498 34.6027C41.7538 34.6347 41.6691 34.678 41.5731 34.7308C41.2334 34.9256 40.9265 35.2804 40.7129 35.6795L43.3858 37.223C43.5985 36.823 43.9035 36.4672 44.2395 36.2715C44.3345 36.2178 44.4305 36.1755 44.5265 36.1435L58.4352 32.0362C58.648 31.9722 58.84 31.9938 58.9783 32.0795L56.312 30.5387Z" fill="#FFD63C"/>
<path d="M43.3859 37.6008C43.3198 37.6008 43.2548 37.5833 43.1977 37.55L40.5247 36.0056C40.4398 35.9567 40.3773 35.8767 40.3504 35.7825C40.3235 35.6883 40.3344 35.5874 40.3807 35.5011C40.6424 35.0154 40.9991 34.6258 41.3859 34.4046C41.5083 34.3368 41.6127 34.2851 41.7313 34.2465L55.6523 30.1458C56.0316 30.0206 56.3233 30.1119 56.4993 30.2126H56.5003L59.1375 31.7373C59.1813 31.7602 59.2203 31.7915 59.2521 31.8294C59.2838 31.8673 59.3079 31.9111 59.3227 31.9583C59.3376 32.0055 59.343 32.0552 59.3387 32.1044C59.3343 32.1537 59.3203 32.2017 59.2975 32.2456C59.2746 32.2894 59.2433 32.3284 59.2054 32.3602C59.1675 32.3919 59.1237 32.416 59.0765 32.4308C59.0293 32.4457 58.9796 32.4511 58.9303 32.4468C58.881 32.4424 58.8331 32.4284 58.7892 32.4056L58.7704 32.3952C58.7196 32.3688 58.6358 32.3698 58.5436 32.398L44.633 36.5053C44.5599 36.5308 44.4894 36.563 44.4222 36.6013C44.168 36.7491 43.9092 37.0418 43.7182 37.4013C43.6861 37.4616 43.6382 37.512 43.5797 37.5471C43.5212 37.5823 43.4542 37.6008 43.3859 37.6008ZM41.2391 35.5491L43.256 36.7143C43.4838 36.383 43.7577 36.1157 44.0495 35.9463C44.164 35.8817 44.2844 35.8282 44.409 35.7863L57.7982 31.8333L56.1247 30.8658C56.0815 30.8413 56.0137 30.8187 55.8782 30.8639L41.9553 34.9646C41.8862 34.9904 41.8194 35.0222 41.7558 35.0597C41.577 35.1632 41.3963 35.3345 41.2382 35.5491H41.2391ZM15.1591 34.6192C16.009 34.1279 16.7789 33.8305 17.4687 33.7223C17.6843 33.6865 17.7925 33.8023 17.7935 34.0686C17.7935 34.2117 17.7539 34.366 17.6664 34.5288C17.5934 34.6816 17.4768 34.8093 17.3313 34.8959C17.2744 34.9275 17.211 34.9459 17.1459 34.9496C16.5436 35.0568 15.9224 35.2959 15.2796 35.6667C14.6678 36.0197 14.1709 36.4423 13.7887 36.9298C13.4095 37.4154 13.2193 37.8973 13.2203 38.3792C13.2212 38.6964 13.3125 38.9063 13.4951 38.9985C13.6767 39.0945 13.9064 39.1171 14.1784 39.0719C14.4542 39.0248 14.8278 38.9251 15.2984 38.7811C15.9102 38.5938 16.4015 38.4808 16.7789 38.4328C17.1525 38.3839 17.4753 38.4611 17.7417 38.6625C18.0118 38.862 18.1445 39.2648 18.1464 39.8719C18.1473 40.3707 18.024 40.8856 17.7803 41.4248C17.5173 41.9866 17.1651 42.5022 16.7375 42.9514C16.2855 43.4383 15.7626 43.8539 15.1864 44.1844C14.2047 44.751 13.2833 45.0663 12.425 45.1359C12.3822 45.1396 12.3392 45.1338 12.299 45.1188C12.2588 45.1039 12.2224 45.0801 12.1925 45.0493C12.1282 44.9723 12.0955 44.8737 12.1012 44.7736C12.1012 44.623 12.1436 44.4705 12.2311 44.3086C12.309 44.1578 12.4273 44.0317 12.5727 43.9444C12.6391 43.9029 12.7142 43.8771 12.792 43.8691C13.5055 43.8239 14.2687 43.5651 15.0791 43.0973C16.4325 42.3161 17.1073 41.4154 17.1045 40.3924C17.1036 40.126 17.0151 39.9566 16.84 39.8794C16.665 39.8023 16.4523 39.7825 16.1972 39.8296C15.9412 39.8766 15.5779 39.9613 15.1036 40.0931C14.4777 40.2681 13.9704 40.3801 13.5864 40.4272C13.2005 40.4808 12.8664 40.4103 12.5859 40.2277C12.3064 40.0404 12.1671 39.6573 12.1652 39.0813C12.1643 38.5759 12.2772 38.0498 12.5078 37.503C12.7599 36.9239 13.1052 36.3901 13.5299 35.9227C14.0001 35.4046 14.5497 34.9646 15.1582 34.6192H15.1591ZM20.4212 31.6187C20.5398 31.6827 20.5972 31.8117 20.5982 31.9971V32.0507C20.5982 32.2361 20.5417 32.4319 20.425 32.6305C20.329 32.813 20.1852 32.9659 20.009 33.0728L19.9412 33.1105C19.7765 33.2056 19.6391 33.2197 19.5205 33.1528C19.4057 33.087 19.3483 32.958 19.3483 32.7726V32.719C19.3473 32.5336 19.4047 32.3378 19.5177 32.1411C19.6353 31.9378 19.7718 31.7928 19.9375 31.6978L20.0043 31.6583C20.169 31.5641 20.3064 31.55 20.4212 31.6187ZM19.9647 34.4159C20.12 34.3265 20.2471 34.3114 20.3487 34.3688C20.4504 34.4263 20.5012 34.5439 20.5012 34.7218L20.5172 40.4366C20.5172 40.606 20.4683 40.7783 20.3638 40.9505C20.2603 41.1265 20.1323 41.2583 19.9845 41.3439C19.8405 41.4277 19.7153 41.4408 19.6146 41.3834C19.5139 41.3298 19.4631 41.2159 19.4622 41.0456L19.4462 35.3307C19.4462 35.1613 19.496 34.9891 19.5967 34.8112C19.6965 34.6324 19.8207 34.4997 19.9647 34.4159ZM27.6589 30.1561C27.7662 30.2136 27.817 30.3274 27.8179 30.4978L27.8339 36.4526C27.8377 37.5726 27.6043 38.5693 27.1356 39.4427C26.674 40.3118 25.9744 41.0313 25.1186 41.5171C24.693 41.7667 24.2376 41.9618 23.7633 42.0978C23.3059 42.2296 22.9295 42.2813 22.6367 42.2578C22.4984 42.2361 22.4278 42.1232 22.4269 41.9105C22.4269 41.7674 22.4702 41.615 22.5605 41.454C22.6345 41.3057 22.7486 41.1812 22.8899 41.0945C22.9539 41.0591 23.0243 41.0367 23.097 41.0286C23.6871 41.0286 24.3262 40.8253 25.0113 40.43C26.1944 39.7467 26.7836 38.6832 26.7798 37.2357L26.777 36.3434C26.2311 37.3354 25.5704 38.0536 24.7967 38.4997C24.3403 38.7632 23.8998 38.8865 23.4687 38.8724C23.0415 38.8564 22.6838 38.6719 22.4033 38.3152C22.1266 37.9528 21.9836 37.4013 21.9807 36.6559C21.9774 35.9225 22.1171 35.1956 22.392 34.5157C22.6507 33.87 23.0078 33.2683 23.4509 32.7321C23.881 32.2211 24.3205 31.8361 24.7779 31.5717C25.5497 31.1256 26.2132 31.0832 26.7638 31.439L26.7619 31.1067C26.7619 30.9373 26.8118 30.7651 26.9125 30.5872C27.0123 30.4084 27.1365 30.2757 27.2815 30.1919C27.4292 30.1072 27.5544 30.0968 27.6579 30.1561H27.6589ZM26.7742 35.262L26.7666 32.5204C26.5247 32.3693 26.2493 32.2798 25.9647 32.2597C25.6852 32.2437 25.3652 32.3387 25.0029 32.5486C24.4134 32.8929 23.9236 33.3846 23.5817 33.9754C23.2133 34.6025 23.0245 35.3188 23.0358 36.046C23.0386 36.8112 23.225 37.2884 23.592 37.4813C23.9591 37.6714 24.4344 37.6037 25.016 37.2677C25.3832 37.0542 25.7084 36.7758 25.976 36.446C26.2546 36.1072 26.5191 35.7147 26.7742 35.262ZM32.8598 26.9053C33.2833 26.6606 33.6532 26.5637 33.9666 26.6145C34.28 26.6663 34.5219 26.8394 34.6885 27.1453C34.8579 27.4465 34.9398 27.8399 34.9407 28.319L34.9511 32.1025C34.952 32.2728 34.9022 32.4451 34.7977 32.6173C34.7085 32.7781 34.5791 32.913 34.4222 33.0088C34.2744 33.0936 34.1492 33.1077 34.0485 33.0503C33.9478 32.9966 33.897 32.8827 33.896 32.7124L33.8866 29.0634C33.8829 27.9783 33.4584 27.6818 32.6076 28.1731C32.2217 28.3961 31.8753 28.7114 31.5704 29.1199C31.2645 29.5246 30.9775 30.0046 30.7092 30.5496L30.7205 34.5458C30.7205 34.7152 30.6706 34.8884 30.5633 35.0625C30.4598 35.2385 30.3356 35.3674 30.1878 35.4531C30.0429 35.5368 29.9186 35.55 29.8179 35.4926C29.7163 35.439 29.6655 35.3251 29.6655 35.1557L29.6495 29.4399C29.6495 29.2705 29.6984 29.0983 29.7991 28.9204C29.8998 28.7416 30.024 28.6088 30.168 28.5251C30.3158 28.4404 30.441 28.43 30.5445 28.4893C30.6527 28.5467 30.7045 28.6606 30.7045 28.831L30.7055 29.375C30.9972 28.8357 31.3153 28.3538 31.6542 27.935C31.993 27.518 32.3958 27.1726 32.8598 26.9053ZM45.9864 16.8865C46.1342 16.8008 46.2593 16.7867 46.3629 16.847C46.4683 16.9063 46.5229 17.022 46.5229 17.1877L46.5379 22.4517C46.5414 23.239 46.3771 24.018 46.056 24.7368C45.7487 25.4475 45.3274 26.1034 44.809 26.6785C44.2989 27.2404 43.768 27.6818 43.2203 27.998C42.6725 28.3143 42.1417 28.4856 41.6297 28.5147C41.1215 28.5411 40.7007 28.3783 40.376 28.0159C40.0485 27.6592 39.8857 27.0841 39.8838 26.2936L39.8687 21.0296C39.8687 20.8639 39.9177 20.6879 40.0184 20.51C40.1191 20.3312 40.2396 20.2041 40.3873 20.1185C40.5351 20.0338 40.6603 20.0197 40.7638 20.079C40.8692 20.1383 40.9238 20.254 40.9238 20.4206L40.9389 25.7223C40.9398 26.2587 41.0452 26.6512 41.2617 26.8978C41.4744 27.15 41.7539 27.2667 42.104 27.2545C42.4513 27.2394 42.824 27.1171 43.2175 26.8903C43.6109 26.6634 43.9836 26.3547 44.329 25.9698C44.6772 25.5783 44.9558 25.1397 45.1666 24.6427C45.3768 24.1554 45.4841 23.6299 45.4819 23.0992L45.4669 17.7976C45.4669 17.631 45.5167 17.455 45.6175 17.2771C45.7182 17.0992 45.8415 16.9693 45.9864 16.8865ZM53.7511 16.4921C54.0184 16.8752 54.1539 17.4267 54.1558 18.1458C54.1569 18.8691 54.0232 19.5863 53.7615 20.2606C53.5135 20.9223 53.1622 21.5405 52.7205 22.0921C52.2942 22.6164 51.8377 23.0239 51.3605 23.2987C50.601 23.7373 49.9412 23.7787 49.3746 23.4277L49.384 26.8263C49.384 27.0041 49.3351 27.1801 49.2335 27.3533C49.1436 27.5168 49.0116 27.6532 48.8513 27.7486C48.7036 27.8333 48.5822 27.8427 48.4815 27.7806C48.3798 27.7194 48.329 27.6056 48.329 27.4352L48.3036 18.6578C48.3036 18.4884 48.3535 18.3161 48.4542 18.142C48.5549 17.9679 48.6753 17.8408 48.8231 17.7552C48.9709 17.6696 49.096 17.6554 49.1996 17.711C49.305 17.7674 49.3596 17.8785 49.3596 18.0488V18.3924C49.9233 17.3947 50.5803 16.6747 51.3398 16.2361C51.817 15.9604 52.2744 15.8352 52.7026 15.871C53.1337 15.9011 53.481 16.11 53.7511 16.4921ZM52.5822 20.83C52.9304 20.2107 53.1036 19.519 53.1007 18.7547C53.0989 17.9943 52.9219 17.5039 52.5718 17.2846C52.2236 17.0681 51.7633 17.1246 51.192 17.454C50.813 17.68 50.4747 17.9683 50.1916 18.3067C49.8724 18.6772 49.5947 19.0815 49.3633 19.5124L49.3709 22.3124C49.6109 22.4752 49.8866 22.5599 50.2038 22.559C50.5163 22.559 50.8495 22.4564 51.2062 22.2512C51.7864 21.9125 52.2623 21.4209 52.5822 20.83Z" fill="white"/>
</svg>
