<svg width="56" height="46" viewBox="0 0 56 46" fill="none" xmlns="http://www.w3.org/2000/svg">
<path d="M55.0992 25.0383C55.1857 27.1058 54.4486 29.1232 53.0496 30.648C51.6506 32.1727 49.7039 33.0802 47.6366 33.1714C47.5157 33.177 47.395 33.1799 47.2745 33.1799C46.7252 33.1795 46.1776 33.12 45.641 33.0026C44.0489 35.4607 41.9613 37.5595 39.5116 39.1647C37.062 40.7699 34.3043 41.8462 31.4149 42.3246C31.0732 43.3286 30.3914 44.1816 29.4874 44.7362C28.5834 45.2909 27.5141 45.5122 26.4642 45.3621C25.4143 45.2119 24.4499 44.6996 23.7376 43.9138C23.0254 43.128 22.6101 42.118 22.5635 41.0584C22.5169 39.9989 22.842 38.9564 23.4825 38.1111C24.1231 37.2658 25.0388 36.6709 26.0715 36.4292C27.1041 36.1874 28.1888 36.3141 29.138 36.7873C30.0871 37.2604 30.8411 38.0503 31.2697 39.0205C35.3375 38.2681 39.0124 36.1122 41.6538 32.9285C44.2952 29.7447 45.7357 25.7351 45.7241 21.5982C45.7241 11.825 37.7731 3.87402 27.9999 3.87402C18.2267 3.87402 10.2757 11.825 10.2757 21.5982C10.2752 24.6203 11.0475 27.5922 12.5193 30.2316C12.5692 30.3188 12.6066 30.4124 12.6305 30.5099C12.7727 30.905 12.7575 31.3397 12.5881 31.7239C12.4187 32.1082 12.108 32.4126 11.7204 32.5741C10.7713 32.9736 9.75197 33.1792 8.72224 33.1791C8.60106 33.1791 8.47961 33.1763 8.35792 33.1707C6.29148 33.0783 4.346 32.1702 2.94806 30.6456C1.55012 29.121 0.813828 27.1042 0.900619 25.0375C0.93551 24.2134 0.916041 23.4781 0.89701 22.767C0.879291 22.0975 0.860807 21.4052 0.891213 20.6828C0.981959 18.6649 1.84999 16.7603 3.31349 15.3681C4.77699 13.9758 6.72244 13.2039 8.74237 13.2139C11.986 5.79257 19.3965 0.592773 27.9999 0.592773C36.6034 0.592773 44.014 5.79257 47.2576 13.214C49.2777 13.2025 51.2238 13.9738 52.6875 15.3661C54.1513 16.7583 55.019 18.6634 55.1085 20.6816C55.139 21.4051 55.1207 22.0973 55.1027 22.7668C55.0839 23.478 55.0643 24.2136 55.0992 25.0383ZM41.7598 21.5982C41.759 23.7063 41.2741 25.786 40.3424 27.6769C39.4107 29.5679 38.0571 31.2196 36.3861 32.5047C34.7151 33.7898 32.7712 34.6739 30.7044 35.0889C28.6376 35.5039 26.5032 35.4387 24.4656 34.8982L18.8961 38.1146C18.6151 38.2769 18.2922 38.3522 17.9684 38.331C17.6446 38.3098 17.3343 38.1931 17.0769 37.9955C16.8194 37.798 16.6263 37.5285 16.522 37.2212C16.4177 36.9139 16.4069 36.5826 16.4909 36.2691L17.9143 30.9592C15.5571 28.4113 14.2455 25.0693 14.2405 21.5982C14.2405 14.0089 20.4127 7.83515 27.9999 7.83515C35.5872 7.83515 41.7598 14.0089 41.7598 21.5982ZM24.1745 21.5982C24.1745 21.1631 24.0017 20.7458 23.694 20.4381C23.3863 20.1305 22.969 19.9576 22.5339 19.9576H22.5312C22.2068 19.9582 21.8899 20.055 21.6205 20.2356C21.3511 20.4162 21.1413 20.6727 21.0176 20.9725C20.8939 21.2724 20.8619 21.6021 20.9255 21.9202C20.9892 22.2382 21.1456 22.5303 21.3752 22.7594C21.6048 22.9886 21.8971 23.1445 22.2153 23.2076C22.5334 23.2706 22.8632 23.238 23.1628 23.1137C23.4624 22.9894 23.7184 22.7791 23.8986 22.5094C24.0787 22.2397 24.1749 21.9226 24.1749 21.5982H24.1745ZM29.6409 21.5982C29.6407 21.5445 29.6378 21.4909 29.6321 21.4375C29.6269 21.3838 29.619 21.3305 29.6082 21.2778C29.5984 21.2252 29.5852 21.1733 29.5687 21.1225C29.5535 21.0711 29.5349 21.0207 29.5152 20.9704C29.4955 20.9201 29.4714 20.8731 29.4463 20.8261C29.4213 20.7788 29.3939 20.7328 29.3643 20.6882C29.3344 20.6433 29.3022 20.5998 29.2679 20.5581C29.2342 20.5163 29.1981 20.4765 29.1597 20.4389C29.1225 20.4006 29.0821 20.3645 29.0405 20.3295C28.9988 20.2967 28.9551 20.2639 28.9102 20.2343C28.8658 20.2047 28.8198 20.1773 28.7725 20.1523C28.7254 20.1271 28.6763 20.1042 28.627 20.0834C28.5777 20.0628 28.5274 20.0449 28.4761 20.0298C28.3738 19.997 28.2682 19.9757 28.1611 19.9664C28.0004 19.9509 27.8384 19.9586 27.6799 19.9893C27.6271 20.0001 27.575 20.0136 27.5236 20.0298C27.4723 20.0448 27.4219 20.0627 27.3727 20.0834C27.3234 20.1042 27.2742 20.1271 27.2272 20.1523C27.1802 20.1775 27.1342 20.2048 27.0893 20.2343C26.9995 20.2939 26.916 20.3624 26.84 20.4389C26.8016 20.4765 26.7654 20.5163 26.7316 20.5581C26.6977 20.5998 26.666 20.6433 26.6366 20.6882C26.6065 20.7327 26.5788 20.7787 26.5534 20.8261C26.5282 20.8729 26.5055 20.9211 26.4855 20.9704C26.4647 21.0202 26.4465 21.0709 26.4308 21.1225C26.4156 21.1728 26.4025 21.2253 26.3916 21.2778C26.3808 21.3305 26.3727 21.3839 26.3674 21.4375C26.362 21.4911 26.3597 21.5446 26.3597 21.5982C26.3597 21.6518 26.362 21.7065 26.3674 21.7601C26.3728 21.8134 26.3808 21.8663 26.3916 21.9187C26.4025 21.9712 26.4156 22.0237 26.4308 22.0751C26.4465 22.1263 26.4648 22.1767 26.4855 22.2261C26.5055 22.2757 26.5282 22.3243 26.5534 22.3715C26.5785 22.4186 26.607 22.4645 26.6366 22.5093C26.666 22.554 26.6977 22.597 26.7316 22.6384C26.7657 22.6803 26.8019 22.7205 26.84 22.7587C26.8783 22.7959 26.9177 22.8331 26.9603 22.867C27.0014 22.9011 27.0445 22.9329 27.0893 22.9621C27.1342 22.9917 27.18 23.0201 27.2272 23.0453C27.3222 23.0948 27.4214 23.1358 27.5236 23.1678C27.5749 23.1831 27.6274 23.1962 27.6799 23.2071C27.7853 23.2287 27.8927 23.2394 28.0004 23.2389C28.435 23.2377 28.8516 23.0652 29.1597 22.7587C29.2353 22.682 29.3038 22.5985 29.3643 22.5093C29.3938 22.4645 29.4211 22.4186 29.4463 22.3715C29.4714 22.3245 29.4944 22.2753 29.5152 22.2261C29.536 22.1768 29.5535 22.1254 29.5687 22.0751C29.585 22.0238 29.5982 21.9716 29.6082 21.9187C29.6189 21.8663 29.6269 21.8134 29.6321 21.7601C29.6377 21.7063 29.6405 21.6522 29.6405 21.598L29.6409 21.5982ZM35.1096 21.5982C35.1096 21.1631 34.9368 20.7458 34.6291 20.4381C34.3214 20.1305 33.9041 19.9576 33.469 19.9576H33.4658C33.1415 19.9582 32.8246 20.055 32.5552 20.2357C32.2858 20.4163 32.076 20.6728 31.9523 20.9726C31.8287 21.2724 31.7966 21.6022 31.8603 21.9203C31.9239 22.2383 32.0804 22.5303 32.31 22.7595C32.5396 22.9886 32.8319 23.1445 33.1501 23.2076C33.4683 23.2706 33.798 23.2379 34.0976 23.1137C34.3972 22.9894 34.6532 22.7791 34.8333 22.5094C35.0135 22.2397 35.1096 21.9226 35.1096 21.5982Z" fill="white"/>
</svg>
