<svg width="24" height="24" viewBox="0 0 24 24" fill="none" xmlns="http://www.w3.org/2000/svg">
<path d="M15.0288 5.98361C15.9578 5.98361 16.7965 6.34652 17.3874 6.92917C18.1224 6.79337 18.8153 6.54593 19.438 6.20321C19.1971 6.90155 18.6846 7.4874 18.0182 7.85803C18.6703 7.78477 19.2946 7.62481 19.874 7.38569C19.4397 7.98524 18.8929 8.51315 18.2616 8.93504C18.2675 9.06306 18.2709 9.19241 18.2709 9.32122C18.2709 13.2752 15.0206 17.8358 9.07715 17.8358C7.25285 17.8358 5.55364 17.3388 4.12458 16.4902C4.38023 16.5185 4.6374 16.5327 4.89477 16.5326C6.40846 16.5326 7.80239 16.0546 8.9085 15.251C7.49375 15.228 6.29966 14.3619 5.89011 13.1738C6.09069 13.2097 6.29432 13.2277 6.4984 13.2277C6.79214 13.2277 7.07829 13.1915 7.34871 13.1228C5.87071 12.8488 4.75674 11.6392 4.75674 10.1886V10.1502C5.19271 10.3746 5.69053 10.5093 6.22096 10.5249C5.3535 9.98755 4.78316 9.07294 4.78316 8.03456C4.78316 7.48572 4.94284 6.97151 5.22084 6.5311C6.81408 8.34051 9.19495 9.53212 11.8808 9.65745C11.8254 9.43897 11.7968 9.20818 11.7968 8.97603C11.7968 7.32309 13.2435 5.98361 15.0288 5.98361ZM15.0287 4.91016C12.821 4.91016 10.992 6.45013 10.7103 8.4399C8.90398 8.09342 7.26127 7.18039 6.08095 5.84091C5.97544 5.72107 5.84375 5.62472 5.69511 5.55861C5.54647 5.4925 5.38448 5.45824 5.22051 5.45822C5.19106 5.45823 5.16162 5.4593 5.13226 5.46144C4.95404 5.47507 4.78177 5.52901 4.62971 5.6188C4.47765 5.70859 4.35016 5.83165 4.25778 5.9778C3.86579 6.5988 3.65867 7.31014 3.65875 8.0352C3.65875 8.51908 3.74981 8.99036 3.92242 9.43104C3.73858 9.62615 3.63261 9.88138 3.63261 10.1508V10.1892C3.63261 11.2407 4.06802 12.2165 4.791 12.9479C4.74939 13.132 4.75867 13.3247 4.8222 13.5093C5.07155 14.2337 5.52551 14.8579 6.11412 15.3335C5.71889 15.4175 5.31104 15.4599 4.89472 15.4599C4.67462 15.4599 4.46043 15.4483 4.25776 15.4247C4.21279 15.4193 4.16837 15.4175 4.12368 15.4175C3.65144 15.4175 3.22277 15.7017 3.06367 16.1351C2.88911 16.6101 3.08281 17.1367 3.53029 17.4027C5.19101 18.3892 7.10918 18.9102 9.07684 18.9102C15.4723 18.9102 19.3193 14.1301 19.3941 9.46079C19.9189 9.04625 20.3825 8.56578 20.7723 8.03248C20.9203 7.84691 21.0003 7.62002 21 7.38676C21 7.0215 20.8086 6.69863 20.5171 6.50458C20.6433 6.09154 20.4994 5.64442 20.148 5.37121C19.9428 5.2118 19.6912 5.13075 19.4382 5.13075C19.2411 5.13057 19.0473 5.1801 18.8766 5.27433C18.505 5.47885 18.1075 5.64068 17.689 5.75718C16.9317 5.21317 15.9929 4.91017 15.0287 4.91016Z" fill="white"/>
</svg>
