<svg width="109" height="111" viewBox="0 0 109 111" fill="none" xmlns="http://www.w3.org/2000/svg">
<path d="M96.6532 0.0776367H5.1992C2.32776 0.0776367 0 2.40508 0 5.27612V104.957C0 107.828 2.32776 110.156 5.1992 110.156H96.6532C99.5246 110.156 101.852 107.828 101.852 104.957V5.27612C101.852 2.40508 99.5246 0.0776367 96.6532 0.0776367Z" fill="#282827"/>
<path d="M108.715 5.19849V104.983C108.715 106.362 108.168 107.684 107.192 108.659C106.217 109.634 104.895 110.182 103.516 110.182H94.9634C96.3423 110.182 97.6647 109.634 98.6398 108.659C99.6148 107.684 100.163 106.362 100.163 104.983V5.19849C100.163 3.81976 99.6148 2.4975 98.6398 1.5226C97.6647 0.547692 96.3423 0 94.9634 0H103.516C104.895 0 106.217 0.547692 107.192 1.5226C108.168 2.4975 108.715 3.81976 108.715 5.19849Z" fill="url(#paint0_linear_3038_599)"/>
<g clip-path="url(#clip0_3038_599)">
<path d="M26.7418 42.7229C27.6601 41.5742 28.2832 40.0321 28.1189 38.4561C26.7747 38.5229 25.1342 39.343 24.1845 40.4924C23.3317 41.4769 22.577 43.0836 22.7738 44.5935C24.2826 44.7244 25.7904 43.8393 26.7418 42.7229ZM28.1017 44.8883C25.9103 44.7578 24.0469 46.132 23.0003 46.132C21.9533 46.132 20.3506 44.9541 18.6173 44.9858C16.3612 45.019 14.2678 46.2946 13.123 48.3234C10.7682 52.3819 12.5016 58.4023 14.7915 61.7077C15.9034 63.3429 17.2437 65.1436 19.0095 65.0789C20.678 65.0134 21.332 63.9985 23.36 63.9985C25.3867 63.9985 25.9758 65.0789 27.7419 65.0461C29.5735 65.0134 30.7185 63.41 31.8305 61.773C33.1062 59.9088 33.6285 58.1089 33.6612 58.01C33.6283 57.9772 30.1294 56.6349 30.097 52.6102C30.0639 49.2402 32.844 47.637 32.9749 47.5377C31.4051 45.216 28.9521 44.9541 28.1017 44.8883ZM47.1835 40.3274C51.9467 40.3274 55.2634 43.6108 55.2634 48.391C55.2634 53.1883 51.8783 56.4887 47.0641 56.4887H41.7904V64.8754H37.9802V40.3274H47.1835ZM41.7903 53.2904H46.1622C49.4797 53.2904 51.3677 51.5043 51.3677 48.4081C51.3677 45.3121 49.4797 43.5428 46.1793 43.5428H41.7903V53.2904ZM56.259 59.7891C56.259 56.6587 58.6576 54.7364 62.9109 54.4983L67.81 54.2092V52.8314C67.81 50.841 66.466 49.6501 64.2209 49.6501C62.0939 49.6501 60.767 50.6707 60.4442 52.27H56.9738C57.1779 49.0375 59.9335 46.656 64.3568 46.656C68.6946 46.656 71.4674 48.9525 71.4674 52.5419V64.8754H67.9459V61.9324H67.8612C66.8236 63.9229 64.5608 65.1816 62.2133 65.1816C58.7088 65.1816 56.259 63.004 56.259 59.7891ZM67.8098 58.173V56.7611L63.4037 57.0332C61.2092 57.1864 59.9675 58.1561 59.9675 59.6871C59.9675 61.252 61.2603 62.2729 63.2337 62.2729C65.8024 62.2726 67.8098 60.5034 67.8098 58.173ZM74.7919 71.459V68.4819C75.0637 68.5499 75.6759 68.5499 75.9823 68.5499C77.6834 68.5499 78.6022 67.8355 79.1632 65.9983C79.1632 65.9642 79.4868 64.9095 79.4868 64.8924L73.0226 46.9791H77.0029L81.5285 61.5412H81.5962L86.1218 46.9791H90.0001L83.2969 65.8109C81.7665 70.1492 79.9972 71.544 76.2887 71.544C75.9823 71.544 75.0635 71.5099 74.7919 71.459Z" fill="white"/>
</g>
<defs>
<linearGradient id="paint0_linear_3038_599" x1="101.852" y1="110.182" x2="101.852" y2="0.0779781" gradientUnits="userSpaceOnUse">
<stop stop-color="#1D1D1D"/>
<stop offset="0.04" stop-color="#252525"/>
<stop offset="0.15" stop-color="#363636"/>
<stop offset="0.28" stop-color="#414141"/>
<stop offset="0.47" stop-color="#484848"/>
<stop offset="1" stop-color="#4A4A4A"/>
</linearGradient>
<clipPath id="clip0_3038_599">
<rect width="78" height="78" fill="white" transform="translate(12 16)"/>
</clipPath>
</defs>
</svg>
