<svg width="109" height="111" viewBox="0 0 109 111" fill="none" xmlns="http://www.w3.org/2000/svg">
<path d="M96.6532 0.0773926H5.1992C2.32776 0.0773926 0 2.40483 0 5.27588V104.957C0 107.828 2.32776 110.155 5.1992 110.155H96.6532C99.5246 110.155 101.852 107.828 101.852 104.957V5.27588C101.852 2.40483 99.5246 0.0773926 96.6532 0.0773926Z" fill="#282827"/>
<path d="M108.715 5.19849V104.983C108.715 106.362 108.168 107.684 107.192 108.659C106.217 109.634 104.895 110.182 103.516 110.182H94.9634C96.3423 110.182 97.6647 109.634 98.6398 108.659C99.6148 107.684 100.163 106.362 100.163 104.983V5.19849C100.163 3.81976 99.6148 2.4975 98.6398 1.5226C97.6647 0.547692 96.3423 0 94.9634 0H103.516C104.895 0 106.217 0.547692 107.192 1.5226C108.168 2.4975 108.715 3.81976 108.715 5.19849Z" fill="url(#paint0_linear_3038_590)"/>
<path d="M28.8414 56.6571C28.1037 57.1584 27.8975 58.0426 28.6646 58.3378C29.4029 58.622 30.4921 58.1327 30.6406 57.3644L30.8177 56.4511C30.4343 56.3912 29.5789 56.1559 28.8414 56.6571ZM48.7781 53.3484C47.8631 53.3484 47.2145 53.7991 46.9488 54.8819H49.8098C49.9575 54.1085 49.692 53.3484 48.7781 53.3484ZM67.7696 56.6571C67.0323 57.1584 66.8263 58.0426 67.5933 58.3378C68.331 58.622 69.4202 58.1327 69.569 57.3644L69.7461 56.4511C69.3624 56.3912 68.5071 56.1559 67.7696 56.6571Z" fill="white"/>
<path d="M66.3781 32C60.8988 32 55.9138 33.9174 51.976 37.1314C54.9794 40.0309 57.2722 43.6621 58.5024 47.7659L56.6026 47.7662C55.4125 44.1173 53.3214 40.9039 50.6028 38.3203C47.9006 40.8971 45.8288 44.0545 44.6422 47.7668H42.7419C43.9671 43.7452 46.2208 40.0443 49.2011 37.1536C45.2731 33.9721 40.311 32.0029 34.8629 32.0029C22.2364 32.0029 12 42.2378 12 54.8647C12 67.4909 22.2364 77.7265 34.8629 77.7265C40.3112 77.7265 45.2731 75.7731 49.2011 72.5918C46.2208 69.7009 43.9671 66.0186 42.7419 61.997H44.6422C45.8288 65.5546 47.9006 68.8669 50.6028 71.4429C53.3214 68.8601 55.4124 65.5546 56.6026 61.997H58.5024C57.2722 66.0186 54.9794 69.7133 51.976 72.613C55.9138 75.8266 60.899 77.7352 66.3781 77.7352C79.0046 77.7352 89.2411 67.4941 89.2411 54.8679C89.2409 42.2409 79.0046 32 66.3781 32ZM22.3531 60.2955L23.71 53.0999L20.4954 60.2955H18.3126L17.6932 52.9225L16.2778 60.2955H13.9777L15.9534 50.0868H19.6399L20.0821 56.2803L22.8842 50.0868H26.6588L24.7421 60.2955H22.3531ZM30.531 60.2256L30.2022 59.7534C29.7889 60.0487 29.4478 60.1953 28.2681 60.2547C27.0884 60.314 25.5759 59.4297 25.8417 57.6889C26.4902 54.1505 30.6144 54.7995 31.2043 54.7404C31.4701 53.4724 30.5835 53.5903 29.7867 53.5606C28.9908 53.5315 27.4856 53.7674 26.9249 53.826L27.2785 51.998C28.783 51.7029 29.5787 51.7323 30.2865 51.7029C34.1496 51.7029 33.7666 54.5106 33.5304 55.6605L32.6158 60.2955H30.531V60.2256ZM39.8117 57.8365C39.4286 60.3732 36.6861 60.2255 36.1259 60.2255C35.3288 60.2255 34.4744 60.2255 33.4125 59.9302L33.7367 58.1902C34.8868 58.5738 36.4202 58.397 36.7745 58.397C37.5461 58.397 37.6532 57.4202 37.0696 57.1293C36.598 56.8933 36.0963 56.5397 35.2111 56.1559C34.6629 55.918 34.0906 55.2707 34.4148 53.7081C34.8382 51.669 37.6 51.703 37.9242 51.703C38.2488 51.703 39.1039 51.6144 40.195 52.0271L39.6646 53.7378C39.0154 53.5607 37.9242 53.5607 37.3936 53.62C36.5381 53.8557 36.8922 54.6521 37.3639 54.858C37.8359 55.065 38.5732 55.478 39.0153 55.7721C39.4578 56.0376 39.999 56.5995 39.8117 57.8365ZM43.7934 59.8417C43.2921 60.1662 42.6139 60.2547 42.0828 60.2547C41.5523 60.2547 39.8117 59.937 40.2547 57.6374L41.8468 49.6228H44.1473L43.6757 51.7883H44.9139L44.5014 53.6444H43.3218L42.6726 57.0823C42.5546 57.7311 42.6139 58.3294 43.9412 58.1236L43.7934 59.8417ZM48.9247 58.2974C49.8393 58.2974 51.1663 58.1845 51.5201 58.096L51.1663 59.8388C50.6053 60.1341 49.1905 60.2532 48.2164 60.2241C44.2357 60.2241 44.2949 56.4796 44.3834 55.9483C44.4717 55.4178 44.9435 51.7207 48.6594 51.7207C52.6998 51.7207 52.0801 55.0363 51.8149 56.4284H46.801C46.5362 58.4394 48.0106 58.2974 48.9247 58.2974ZM54.8893 56.4261L54.1814 60.2955H51.8815L53.4438 51.7883H55.4203L55.6266 52.6449C55.9802 52.2319 56.6583 51.835 57.8086 51.835L57.2185 54.0718C56.6583 54.0718 55.5669 53.9207 54.8893 56.4261ZM63.6411 57.6306L64.3193 59.6942C63.5523 60.0487 62.7857 60.2256 61.5175 60.2256C59.1287 60.2256 56.5332 58.1018 57.7131 53.7964C58.5825 50.6237 61.3115 49.4614 62.9034 49.5201C64.7911 49.5904 65.4697 50.2279 66.0593 50.8771L64.5548 52.3813C63.9653 52.0272 63.5523 51.9686 62.7856 51.9686C62.0191 51.9686 60.3082 52.7013 59.9839 54.7698C59.6004 57.2168 61.2818 58.4264 63.6411 57.6306ZM69.3552 60.2256L69.0783 59.7534C68.6649 60.0487 68.3501 60.1953 67.1705 60.2547C65.9908 60.314 64.4915 59.4297 64.7571 57.6889C65.4057 54.1505 69.5369 54.7995 70.1266 54.7404C70.3923 53.4724 69.5088 53.5903 68.712 53.5606C67.9159 53.5315 66.4128 53.7674 65.8517 53.826L66.2061 51.998C67.7105 51.7029 68.5068 51.7323 69.2144 51.7029C73.0778 51.7029 72.6949 54.5106 72.459 55.6605L71.5442 60.2955H69.3552V60.2256ZM75.4767 56.3839L74.7615 60.2955H72.4379L74.017 51.7883H76.0127L76.2209 52.6079C76.5783 52.1903 77.2639 51.7664 78.4254 51.7664L77.8 53.9859C77.2337 53.9859 76.1616 53.8531 75.4767 56.3839ZM82.6575 60.2256L82.3944 59.5475C81.9226 59.8719 81.1721 60.1953 80.4051 60.2256C78.7536 60.2256 77.2466 57.8925 77.9952 55.3301C79.1152 51.4964 81.0959 51.7323 82.3636 51.7323C83.4552 51.7323 83.7218 52.3992 84.165 52.7231L84.7859 49.4679H87.2044L85.1992 60.2954H82.6575V60.2256Z" fill="white"/>
<path d="M80.3626 55.7722C80.0387 56.9808 80.7464 57.8959 81.5422 57.8959C82.3979 57.8959 82.9281 57.2168 83.3412 56.1851C83.5774 55.4186 83.4486 54.4614 83.1937 54.1216C82.4863 53.1777 80.8588 53.9239 80.3626 55.7722Z" fill="white"/>
<defs>
<linearGradient id="paint0_linear_3038_590" x1="101.852" y1="110.182" x2="101.852" y2="0.0779781" gradientUnits="userSpaceOnUse">
<stop stop-color="#1D1D1D"/>
<stop offset="0.04" stop-color="#252525"/>
<stop offset="0.15" stop-color="#363636"/>
<stop offset="0.28" stop-color="#414141"/>
<stop offset="0.47" stop-color="#484848"/>
<stop offset="1" stop-color="#4A4A4A"/>
</linearGradient>
</defs>
</svg>
