<svg width="110" height="111" viewBox="0 0 110 111" fill="none" xmlns="http://www.w3.org/2000/svg">
<path d="M97.1444 0.0251465H5.69041C2.81897 0.0251465 0.491211 2.35259 0.491211 5.22363V104.905C0.491211 107.776 2.81897 110.103 5.69041 110.103H97.1444C100.016 110.103 102.344 107.776 102.344 104.905V5.22363C102.344 2.35259 100.016 0.0251465 97.1444 0.0251465Z" fill="#282827"/>
<path d="M109.337 5.19849V104.905C109.337 106.284 108.789 107.606 107.814 108.581C106.839 109.556 105.517 110.104 104.138 110.104H95.585C96.9639 110.104 98.2863 109.556 99.2613 108.581C100.236 107.606 100.784 106.284 100.784 104.905V5.19849C100.784 3.81976 100.236 2.4975 99.2613 1.5226C98.2863 0.547692 96.9639 0 95.585 0H104.138C105.517 0 106.839 0.547692 107.814 1.5226C108.789 2.4975 109.337 3.81976 109.337 5.19849Z" fill="url(#paint0_linear_3038_611)"/>
<g clip-path="url(#clip0_3038_611)">
<path d="M65.0006 71.0254C58.2542 71.0254 51.5079 71.0254 44.7615 71.0254C44.174 71.0254 43.5896 70.9955 42.999 70.997C42.6698 71.0091 42.3456 70.9156 42.0756 70.7307C41.8295 70.56 41.542 70.4459 41.2732 70.3058C41.1866 70.2723 41.1047 70.2281 41.0295 70.1742C40.4584 69.6636 39.8303 69.1791 39.5388 68.4581C39.2474 67.7371 38.9826 66.9969 38.9865 66.1955C38.9951 64.3316 38.9865 62.4678 38.9865 60.6078C38.9865 55.4075 38.9865 50.2071 38.9865 45.0068C38.9795 44.1316 39.1942 43.2684 39.6115 42.4946C40.0435 41.6948 40.6396 41.0235 41.5248 40.6576C41.5472 40.6511 41.5686 40.6413 41.5881 40.6285C42.3029 40.0384 43.1506 40.0032 44.0357 40.0039C56.494 40.0146 68.9524 40.0169 81.4107 40.0108C83.1974 40.0108 84.9841 40.0223 86.7701 40.0208C87.143 40.0214 87.5109 40.1052 87.8459 40.2657C88.7622 40.6743 89.5608 41.2992 90.1701 42.0844C90.3183 42.2875 90.4354 42.5109 90.5177 42.7472C90.7459 43.3466 90.9865 43.9375 90.9787 44.6042C90.9599 46.5828 90.9787 48.5622 90.9787 50.5409C90.9787 55.6953 90.9607 60.8497 90.9951 66.0026C91.0013 67.0061 90.6763 67.8878 90.324 68.7849C90.2783 68.8641 90.2224 68.9372 90.1576 69.0023C89.5115 69.8512 88.6677 70.4566 87.6896 70.8822C87.5154 70.9494 87.33 70.9842 87.1427 70.9848C86.5326 71.0077 85.9209 71.0246 85.3099 71.0246C78.5391 71.0246 71.7683 71.0246 64.9974 71.0246L65.0006 71.0254ZM49.9763 61.883C50.1326 61.6327 50.0959 61.3511 50.0974 61.0778C50.0974 60.02 50.0927 58.9621 50.0974 57.9035C50.1021 57.3241 50.1607 57.2659 50.742 57.2591C51.6115 57.2491 52.481 57.2591 53.3498 57.2529C53.7724 57.2529 54.1959 57.2675 54.5865 57.0539C54.6931 57.0036 54.8115 56.9822 54.9295 56.9919C55.5232 57.0179 55.9646 56.5816 56.5209 56.5013C57.117 56.1002 57.7474 55.7412 58.2396 55.2115C58.3818 55.0584 58.5787 54.9138 58.6303 54.7331C58.7146 54.4308 58.9162 54.2111 59.0623 53.9547C59.2466 53.6324 59.4232 53.314 59.4326 52.9267C59.4326 52.7736 59.5193 52.6205 59.5592 52.4674C59.6037 52.2899 59.6498 52.1115 59.6795 51.9316C59.8568 50.86 59.5193 49.8413 59.3451 48.8056C59.3333 48.761 59.3151 48.7182 59.2912 48.6786C59.0709 48.2514 58.749 47.8787 58.5818 47.421C58.5607 47.3635 58.4802 47.3283 58.4334 47.2778C58.2615 47.0911 58.0974 46.8951 57.9193 46.7175C57.7896 46.5866 57.6607 46.4113 57.4982 46.3631C57.2115 46.2782 57.0217 46.0814 56.7951 45.9215C56.5482 45.7477 56.3045 45.5701 55.9717 45.5793C55.8542 45.5868 55.7378 45.5543 55.642 45.4875C55.3763 45.2464 55.0529 45.2288 54.7232 45.2027C54.5593 45.1998 54.3971 45.1684 54.2443 45.1101C53.9318 44.957 53.6115 44.9501 53.281 44.9494H51.942C50.6029 44.9494 49.2631 44.9494 47.924 44.9494C47.4826 44.9494 47.081 45.0167 46.7521 45.4507V46.2162C46.7521 50.7705 46.7521 55.3251 46.7521 59.8799C46.7521 60.4088 46.7521 60.9377 46.7584 61.4666C46.7701 61.6176 46.793 61.7675 46.8271 61.9152C47.6342 62.1708 49.2584 62.1532 49.9763 61.883ZM63.356 54.182C63.3945 54.145 63.4305 54.1057 63.4638 54.0641C63.5021 54.0067 63.5302 53.9424 63.567 53.8835C63.9576 53.2712 64.5373 52.965 65.2506 52.9014C65.6488 52.8698 66.0488 52.8665 66.4474 52.8915C66.8943 52.9152 67.7052 53.6676 67.7756 54.0971C67.7884 54.1881 67.7908 54.2803 67.7826 54.3718C67.7709 54.5624 67.6763 54.678 67.4834 54.6933C67.0849 54.7209 66.6857 54.7209 66.2873 54.7423C65.8888 54.7637 65.4787 54.7423 65.099 54.8395C64.2146 55.0615 63.2849 55.0454 62.417 55.3707C62.1334 55.4771 61.8435 55.5307 61.6092 55.7412C61.4529 55.8797 61.2631 55.9754 61.1029 56.1078C60.7123 56.4332 60.3842 56.7891 60.1584 57.2682C59.8998 57.8186 59.8927 58.372 59.8763 58.9453C59.8599 59.5186 59.9373 60.0399 60.2443 60.5305C60.6677 61.2056 61.1467 61.8095 61.9881 62.0162C62.1239 62.0519 62.2534 62.1074 62.3724 62.1808C62.6187 62.3231 62.9016 62.3928 63.1873 62.3813C63.9388 62.3813 64.6904 62.392 65.442 62.3752C65.6754 62.3716 65.906 62.3248 66.1217 62.2374C66.674 62.0024 67.2107 61.733 67.7623 61.472L67.9881 61.9466C68.8201 62.1333 69.6412 62.0805 70.4607 62.0491C70.5305 62.0417 70.599 62.0255 70.6646 62.0009C70.9138 61.9244 71.0646 61.7636 71.081 61.5034C71.0943 61.2975 71.0998 61.09 71.0998 60.8834C71.0998 59.0208 71.0998 57.1583 71.0998 55.2957C71.0998 54.7683 71.1342 54.2364 70.892 53.7373C70.8564 53.6515 70.8433 53.5584 70.8537 53.4663C70.8927 53.0002 70.681 52.6152 70.431 52.2524C70.0404 51.6806 69.6092 51.1371 68.8849 50.9312C68.624 50.6641 68.2193 50.733 67.9271 50.537C67.6349 50.3411 67.3201 50.3005 66.9896 50.299L65.0873 50.2921C64.6138 50.2921 64.1498 50.312 63.7349 50.586C63.6556 50.6356 63.5653 50.6657 63.4717 50.674C62.7685 50.7429 62.1998 51.0767 61.6701 51.5061C60.9951 52.0534 60.6396 52.5302 60.3623 53.3247C60.1904 53.8169 60.3287 54.257 60.9927 54.2471C61.6568 54.2371 62.3084 54.2471 62.9654 54.2417C63.097 54.2318 63.2276 54.2118 63.356 54.182ZM72.7685 66.9089C73.0967 67.2089 73.4224 67.411 73.8443 67.4493C75.0863 67.5688 76.3362 67.3189 77.431 66.732C78.2295 66.3095 78.8373 65.6757 79.2966 64.9141C79.5193 64.5429 79.6787 64.1326 79.8435 63.7323C79.9927 63.3733 80.099 62.9983 80.2482 62.64C80.4826 62.0706 80.8154 61.5348 80.8818 60.9033C80.8927 60.7984 80.9873 60.7027 81.0381 60.5971C81.2068 60.2197 81.4427 59.8546 81.5177 59.4597C81.5927 59.0647 81.7795 58.7241 81.9443 58.3796C82.0607 58.1347 82.1865 57.8928 82.3013 57.6433C82.5592 57.0815 82.6592 56.4699 82.9381 55.9119C83.2506 55.2819 83.4115 54.5846 83.7006 53.9401C83.7662 53.7939 83.8943 53.6562 83.9068 53.5077C83.9513 52.9833 84.2256 52.5555 84.4748 52.1192C84.6192 51.8544 84.6822 51.5542 84.656 51.255C84.6365 50.8562 84.4998 50.7085 84.0974 50.6985C83.3943 50.6809 82.6912 50.6932 81.9834 50.6932C81.9364 50.6942 81.8897 50.6991 81.8435 50.7077C81.7256 50.7198 81.6147 50.7682 81.5268 50.8461C81.4389 50.924 81.3785 51.0272 81.3545 51.141C81.3217 51.2741 81.3349 51.4341 81.2623 51.5405C80.9451 52.0097 80.9498 52.593 80.6709 53.076C80.5174 53.3328 80.4116 53.6142 80.3584 53.9072C80.249 54.5724 79.9279 55.1648 79.7427 55.8001C79.6037 56.2793 79.5084 56.7638 79.2631 57.2108C79.1576 57.4007 79.1685 57.6456 79.0545 57.8584C78.9404 58.0712 78.9209 58.3238 78.8599 58.558C78.8146 58.548 78.7818 58.5496 78.7756 58.5381C78.3435 57.8071 77.9287 57.0692 77.7185 56.2349C77.6681 56.0826 77.6021 55.9357 77.5217 55.7963C77.3717 55.4901 77.131 55.1916 77.0881 54.8701C77.031 54.4469 76.8763 54.0772 76.7091 53.7013C76.4951 53.2214 76.3482 52.7154 76.106 52.247C75.9209 51.905 75.7702 51.5461 75.656 51.1754C75.5552 50.8172 75.3435 50.6909 74.9974 50.6924C74.3396 50.6924 73.6818 50.6924 73.024 50.6924C72.9303 50.6937 72.8369 50.7034 72.7451 50.7215C72.5107 50.769 72.3693 50.9167 72.3631 51.1494C72.357 51.2632 72.3748 51.377 72.4154 51.4839C72.6967 52.1383 72.8685 52.8341 73.2193 53.4617C73.2889 53.5828 73.3442 53.7112 73.3842 53.8445C73.6732 54.8349 74.1318 55.758 74.5295 56.7102C74.749 57.233 75.0482 57.7099 75.199 58.2778C75.3795 58.9545 75.7607 59.5791 75.9802 60.2534C76.1459 60.751 76.4943 61.1781 76.5662 61.7146C76.5918 61.8027 76.6336 61.8855 76.6896 61.9588C76.8654 62.265 76.8537 62.5666 76.7201 62.8819C76.5659 63.2638 76.3255 63.6066 76.017 63.8846C75.6035 64.2512 75.077 64.4721 74.5209 64.5123C74.0881 64.5552 73.692 64.4067 73.2865 64.2895C73.0521 64.4541 72.7537 64.5613 72.7396 64.8835C72.7084 65.5655 72.6802 66.2498 72.7685 66.9089Z" fill="white"/>
<path d="M17.9992 55.0026C17.9627 55.0568 17.9217 55.108 17.8766 55.1556C17.2305 55.6807 16.8023 56.3528 16.4633 57.096C16.3494 57.347 16.2814 57.6157 16.2625 57.8898C16.1914 58.7876 16.3469 59.6273 16.8875 60.3767C16.9953 60.9492 17.5375 61.1964 17.8703 61.6014C18.0312 61.795 18.35 61.8677 18.6023 61.9841C18.7281 62.043 18.8891 62.0484 18.993 62.1287C19.2163 62.3005 19.4904 62.3969 19.7742 62.4035C19.8213 62.4033 19.8679 62.4118 19.9117 62.4288C20.8781 62.875 21.8953 62.64 22.8945 62.6477C23.4172 62.3966 24.0094 62.3729 24.5398 62.0958C25.0316 61.835 25.5018 61.5369 25.9461 61.2041C26.304 60.9409 26.6037 60.6095 26.8273 60.2297C26.9101 60.0912 27.0125 59.9649 27.1047 59.8317C27.1828 59.7176 27.3055 59.6112 27.3328 59.4857C27.4672 58.8596 27.7883 58.2878 27.8875 57.6563C27.9414 57.3172 27.9945 56.9843 28.075 56.6475C28.2214 55.9936 28.216 55.3158 28.0594 54.6642C28.0344 54.5533 27.9476 54.4484 27.9469 54.3397C27.9469 53.7748 27.7211 53.2681 27.5508 52.7445C27.1844 51.6109 26.6289 50.5914 25.7203 49.7953C25.1789 49.3215 24.5187 49.0069 23.8711 48.6885C23.7711 48.6388 23.6414 48.6495 23.5273 48.6242C23.3008 48.5745 23.0773 48.5132 22.8508 48.4665C22.556 48.3934 22.2567 48.3392 21.9547 48.3043C21.1805 48.2484 20.4109 48.2369 19.6687 48.5446C19.4633 48.6296 19.2055 48.628 18.975 48.6143C18.1695 48.5637 17.4719 48.8791 16.7609 49.1784C16.2805 49.3782 15.8117 49.568 15.4562 49.9507C15.043 50.0273 14.7531 50.2829 14.4656 50.5975C14.0976 50.2844 13.8969 49.8742 13.6773 49.4761C13.5336 49.2151 13.3969 48.9503 13.25 48.6908C13.0805 48.3931 12.875 48.1121 12.7344 47.8029C12.543 47.3819 12.7133 47.0673 13.1461 46.8323C13.4586 46.6639 13.7187 46.4336 14.0211 46.2743C14.632 45.9529 15.1781 45.5089 15.8961 45.3788C16.2856 45.2991 16.6613 45.1648 17.0117 44.98C17.3625 44.8047 17.725 44.758 18.0992 44.7358C18.5914 44.7067 19.0859 44.7205 19.5476 44.4978C19.6656 44.4404 19.8234 44.4496 19.9633 44.4488C20.5039 44.4427 21.0445 44.4411 21.5851 44.4488C21.7476 44.4488 21.9297 44.4442 22.0687 44.5108C22.4414 44.6891 22.8367 44.7067 23.2344 44.7404C23.5845 44.772 23.9273 44.8578 24.25 44.9945C24.6976 45.1798 25.1781 45.2862 25.6445 45.427C25.7129 45.4411 25.7787 45.4651 25.8398 45.4982C26.9539 46.2491 28.1492 46.9035 29.0305 47.9376C29.4328 48.4099 29.7742 48.9327 30.1242 49.4417C30.3476 49.7624 30.6242 50.0793 30.7281 50.4368C30.8482 50.8076 31.0011 51.1675 31.1851 51.5122C31.3492 51.8459 31.5094 52.172 31.4922 52.5532C31.4864 52.5994 31.4925 52.6462 31.5101 52.6894C31.8023 53.2099 31.7625 53.8031 31.8937 54.3588C31.9002 54.4046 31.9126 54.4493 31.9305 54.492C32.2047 55.0278 32.1648 55.6088 32.1648 56.1829C32.1648 56.5763 32.1562 56.9605 31.968 57.3257C31.8931 57.4959 31.8467 57.6768 31.8305 57.8615C31.7625 58.3131 31.8008 58.7853 31.5273 59.1925C31.5147 59.2122 31.5087 59.2352 31.5101 59.2584C31.5703 59.8745 31.1539 60.3261 30.9406 60.8482C30.7148 61.4023 30.4633 61.9412 30.0758 62.4066C29.7234 62.8299 29.4508 63.3197 28.982 63.6489C28.8931 63.7245 28.8143 63.8109 28.7476 63.9061C28.6883 63.9765 28.6492 64.076 28.5742 64.1212C27.6875 64.6631 26.9148 65.3757 25.9492 65.799C25.9062 65.8174 25.8633 65.8518 25.8203 65.851C25.2844 65.8426 24.8594 66.2123 24.3414 66.2613C24.294 66.2636 24.2479 66.2778 24.2078 66.3026C23.7531 66.6272 23.2266 66.5652 22.7141 66.5667C21.868 66.5667 21.0219 66.5629 20.1758 66.5606C19.9432 66.5559 19.714 66.5057 19.5016 66.4129C19.0055 66.2138 18.5258 65.9597 17.9844 65.8771C17.9373 65.8758 17.8911 65.8651 17.8484 65.8457C17.2726 65.4553 16.5891 65.2333 16.082 64.7343C15.8859 64.5414 15.6476 64.3898 15.4344 64.213C15.3101 64.1097 15.1917 63.9998 15.0797 63.8839C15.0156 63.818 14.9836 63.7193 14.9133 63.6634C14.1273 63.0396 13.7258 62.1701 13.3422 61.2791C13.1398 60.8099 12.957 60.3422 12.9297 59.8286C12.9296 59.8053 12.9251 59.7822 12.9164 59.7605C12.5039 58.881 12.6641 57.9464 12.7086 57.0409C12.7367 56.4615 12.9695 55.8859 13.1523 55.321C13.2492 55.0209 13.4453 54.7538 13.5781 54.4629C13.9836 53.5727 14.7406 52.9818 15.4461 52.3488C15.5797 52.2294 15.7805 52.1842 15.9344 52.0817C16.0883 51.9791 16.2523 51.8283 16.4398 51.9347C16.6273 52.0411 16.7523 52.2034 16.9086 52.3419C16.9867 53.0308 17.4773 53.5391 17.7601 54.1376C17.8875 54.4185 17.9992 54.6773 17.9992 55.0026Z" fill="white"/>
<path d="M50.0999 51.2473C50.0999 50.4895 50.0999 49.7317 50.0999 48.974C50.098 48.7905 50.1064 48.607 50.1249 48.4244C50.1323 48.3549 50.1638 48.2899 50.2141 48.2403C50.2644 48.1908 50.3305 48.1595 50.4014 48.1519C50.4935 48.1334 50.5872 48.1236 50.6811 48.1228C51.666 48.1259 52.6512 48.1305 53.6366 48.1366C54.5311 48.1427 55.1811 48.5958 55.685 49.2664C56.0053 49.6935 56.1616 50.2094 56.3257 50.7061C56.408 50.9715 56.405 51.2554 56.3171 51.519C56.0772 52.1827 55.8421 52.8501 55.3085 53.3806C54.96 53.7273 54.5233 53.849 54.1014 54.0266C53.9092 54.1077 53.6936 54.1437 53.5116 54.2409C53.3364 54.3364 53.1426 54.3948 52.9429 54.4122C52.7431 54.4296 52.5419 54.4057 52.3522 54.3419C51.8632 54.1889 51.3921 54.1552 50.9092 54.3419C50.8206 54.3716 50.7284 54.3899 50.635 54.3963C50.2686 54.4338 50.1186 54.3197 50.1139 53.937C50.1022 53.0415 50.11 52.1459 50.11 51.2504L50.0999 51.2473Z" fill="white"/>
<path d="M66.0244 57.2765C66.4932 57.2765 66.9619 57.2674 67.4307 57.2765C67.6955 57.2834 67.7987 57.4105 67.8002 57.6769C67.8107 57.7683 67.803 57.8608 67.7776 57.9494C67.569 58.4255 67.4018 58.9 66.9463 59.2613C66.4619 59.644 65.9908 59.8821 65.3619 59.8117C65.0347 59.7804 64.7052 59.7786 64.3776 59.8063C63.9549 59.8354 63.6666 59.605 63.3924 59.3547C63.1776 59.158 63.1455 58.5403 63.3143 58.2463C63.542 57.867 63.8782 57.5615 64.2815 57.3676C64.4102 57.3128 64.5498 57.2867 64.6901 57.2911C65.1354 57.2827 65.5815 57.2911 66.0268 57.2911L66.0244 57.2765Z" fill="white"/>
</g>
<defs>
<linearGradient id="paint0_linear_3038_611" x1="102.344" y1="110.104" x2="102.344" y2="0" gradientUnits="userSpaceOnUse">
<stop stop-color="#1D1D1D"/>
<stop offset="0.04" stop-color="#252525"/>
<stop offset="0.15" stop-color="#363636"/>
<stop offset="0.28" stop-color="#414141"/>
<stop offset="0.47" stop-color="#484848"/>
<stop offset="1" stop-color="#4A4A4A"/>
</linearGradient>
<clipPath id="clip0_3038_611">
<rect width="80" height="31" fill="white" transform="translate(11 40)"/>
</clipPath>
</defs>
</svg>
