<svg width="110" height="111" viewBox="0 0 110 111" fill="none" xmlns="http://www.w3.org/2000/svg">
<path d="M97.1444 0.826904H5.69041C2.81897 0.826904 0.491211 3.15435 0.491211 6.02539V105.706C0.491211 108.577 2.81897 110.905 5.69041 110.905H97.1444C100.016 110.905 102.344 108.577 102.344 105.706V6.02539C102.344 3.15435 100.016 0.826904 97.1444 0.826904Z" fill="#282827"/>
<path d="M109.337 6.00025V105.707C109.337 107.086 108.789 108.408 107.814 109.383C106.839 110.358 105.517 110.906 104.138 110.906H95.585C96.9639 110.906 98.2863 110.358 99.2613 109.383C100.236 108.408 100.784 107.086 100.784 105.707V6.00025C100.784 4.62152 100.236 3.29926 99.2613 2.32436C98.2863 1.34945 96.9639 0.801758 95.585 0.801758H104.138C105.517 0.801758 106.839 1.34945 107.814 2.32436C108.789 3.29926 109.337 4.62152 109.337 6.00025Z" fill="url(#paint0_linear_3038_606)"/>
<path d="M40.7176 44.4046L31.1619 66.6484H24.9248L20.2259 48.8984C19.9366 47.8037 19.6893 47.4055 18.8217 46.9406C17.4009 46.1912 15.0637 45.4882 13 45.0503L13.1445 44.4046H23.1789C24.4587 44.4046 25.6092 45.2374 25.8985 46.6729L28.3832 59.5471L34.5204 44.4046H40.7176ZM65.1479 59.3826C65.1756 53.515 56.8251 53.1958 56.8852 50.5707C56.9014 49.7695 57.6799 48.9217 59.385 48.7075C60.2317 48.5977 62.5615 48.517 65.2021 49.6996L66.2371 44.985C64.8163 44.4819 62.99 44 60.7202 44C54.8904 44 50.7863 47.025 50.7517 51.3533C50.7133 54.554 53.6797 56.3402 55.9171 57.4062C58.2148 58.497 58.9828 59.1933 58.9749 60.1715C58.9598 61.6644 57.1416 62.3169 55.446 62.3462C52.4796 62.3912 50.759 61.5641 49.3851 60.94L48.3173 65.8169C49.6934 66.4333 52.2416 66.9685 54.8787 67C61.0748 67 65.1281 64.0071 65.1479 59.3826ZM80.5431 66.6484H86L81.2385 44.4046H76.2011C75.0692 44.4046 74.1149 45.0486 73.6898 46.0351L64.844 66.6484H71.0354L72.2645 63.3265H79.8328L80.5431 66.6484ZM73.9613 58.7673L77.0675 50.4152L78.8543 58.7673H73.9613ZM49.1471 44.4046L44.2667 66.6484H38.3669L43.2485 44.4046H49.1471Z" fill="white"/>
<defs>
<linearGradient id="paint0_linear_3038_606" x1="102.344" y1="110.906" x2="102.344" y2="0.801758" gradientUnits="userSpaceOnUse">
<stop stop-color="#1D1D1D"/>
<stop offset="0.04" stop-color="#252525"/>
<stop offset="0.15" stop-color="#363636"/>
<stop offset="0.28" stop-color="#414141"/>
<stop offset="0.47" stop-color="#484848"/>
<stop offset="1" stop-color="#4A4A4A"/>
</linearGradient>
</defs>
</svg>
