<svg width="56" height="56" viewBox="0 0 56 56" fill="none" xmlns="http://www.w3.org/2000/svg">
<path d="M25.4241 1.56809C24.8641 1.45609 24.1921 1.56809 24.0801 1.56809C11.3121 1.79209 1.45605 12.0961 1.45605 24.4161C1.45605 28.6721 2.57605 31.4721 2.68805 32.0321C5.82405 40.9921 14.2241 47.1521 23.7441 47.2641H24.3041C24.0801 46.4801 24.1921 45.6961 24.5281 44.9121L24.8641 44.2401C24.5281 44.1281 24.1921 44.0161 23.8561 43.7921C23.5201 43.5681 23.1841 43.2321 22.9601 42.8961C20.7201 41.7761 18.3681 38.4161 17.1361 33.4881C19.4881 33.6001 22.1761 33.7121 25.2001 33.6001C25.2001 33.6001 25.0881 33.4881 25.0881 33.3761C24.6401 32.7041 24.3041 31.3601 25.2001 29.6801C22.0641 29.6801 19.0401 29.6801 16.3521 29.4561C16.0161 27.1041 15.9041 24.3041 16.0161 22.6241C16.0161 21.2801 16.1281 19.9361 16.3521 18.7041C17.8081 18.5921 19.1521 18.5921 20.7201 18.4801C24.4161 18.3681 28.4481 18.4801 32.5921 18.7041C32.8161 20.3841 32.9281 22.1761 32.9281 24.0801V24.3041C33.6001 23.2961 34.8321 22.6241 36.1761 22.4001H36.7361C36.7361 21.2801 36.6241 20.1601 36.5121 19.0401C38.9761 19.2641 41.2161 19.6001 43.2321 19.9361C43.3441 20.4961 43.4561 21.1681 43.5681 21.8401V22.2881C43.5681 22.8481 43.6801 23.2961 43.6801 23.8561C44.1281 23.6321 44.5761 23.5201 45.1361 23.5201C46.1441 23.5201 46.9281 23.8561 47.6001 24.1921C47.8241 11.9841 37.7441 1.79209 25.4241 1.56809ZM5.82405 28.5601C5.15205 25.6481 5.26405 22.8481 5.82405 20.1601V20.0481C8.17605 19.7121 10.3041 19.3761 12.5441 19.1521C12.2081 22.1761 12.0961 25.8721 12.5441 29.3441C10.1921 29.2321 7.95205 29.0081 5.82405 28.5601ZM16.3521 41.6641C12.4321 39.8721 9.18405 36.7361 7.28005 32.8161C9.18405 33.0401 11.0881 33.3761 13.2161 33.4881C13.8881 36.6241 15.0081 39.4241 16.3521 41.6641ZM14.2241 11.8721C13.7761 12.9921 13.4401 14.1121 13.2161 15.4561C11.4241 15.5681 9.18405 15.7921 7.28005 16.1281C9.18405 12.2081 12.4321 9.18409 16.3521 7.28009C15.5681 8.62409 14.7841 10.1921 14.2241 11.8721ZM20.4961 15.0081C19.3761 15.0081 18.2561 15.1201 17.2481 15.1201C17.4721 14.2241 17.8081 13.3281 18.1441 12.4321C19.8241 7.95209 22.2881 5.37609 24.6401 5.37609C27.4401 5.37609 30.4641 9.07209 32.0321 15.1201C28.0001 14.8961 24.0801 14.8961 20.4961 15.0081ZM36.0641 15.4561C35.3921 12.3201 34.2721 9.52009 32.9281 7.28009C36.8481 9.07209 40.0961 12.2081 42.0001 16.1281C40.0961 15.7921 38.1921 15.5681 36.0641 15.4561Z" fill="white"/>
<path d="M53.8723 42C53.5363 41.664 52.9763 41.664 52.5283 41.44C51.5203 40.88 51.6323 39.2 52.6403 38.752C53.0883 38.528 53.7603 38.528 54.2083 38.192C54.7683 37.632 54.5443 36.848 54.3203 36.064C54.0963 35.504 53.9843 34.832 53.7603 34.272C53.5363 33.488 53.0883 32.48 52.1923 32.48C51.7443 32.48 51.2963 32.816 50.8483 32.928C49.7283 33.152 48.6083 31.92 49.0563 30.8C49.2803 30.24 49.8403 29.792 49.8403 29.232C49.8403 28.672 49.3923 28.224 48.8323 27.888C48.2723 27.44 47.6003 27.104 47.0403 26.656C46.2563 26.208 45.0243 25.76 44.3523 26.432C44.1283 26.656 44.0163 27.104 43.7923 27.44C43.2323 28.336 41.6643 28.224 41.2163 27.328C40.9923 26.88 40.9923 26.32 40.8803 25.76C40.6563 25.088 40.0963 24.752 39.3123 24.864C38.4163 24.976 37.6323 24.864 36.7363 24.976C35.7283 25.088 34.7203 25.76 34.7203 26.656C34.7203 26.992 34.8323 27.44 34.8323 27.776C34.8323 28.784 33.4883 29.568 32.5923 29.12C32.0323 28.784 31.5843 28.112 30.9123 28C30.2403 27.888 29.6803 28.448 29.2323 28.896L27.8883 30.24C27.3283 30.912 26.6563 31.808 27.1043 32.592C27.3283 33.04 27.7763 33.152 28.1123 33.488C28.5603 33.936 28.6723 34.608 28.3363 35.168C28.1123 35.728 27.4403 36.064 26.8803 36.064C26.5443 36.064 26.2083 35.952 25.8723 35.952C24.8643 36.064 24.5283 37.296 24.5283 38.192V40.32C24.5283 40.88 24.6403 41.552 25.0883 41.888C25.6483 42.224 26.3203 42 26.8803 42.112C27.8883 42.336 28.4483 43.792 27.7763 44.576C27.4403 45.024 26.7683 45.248 26.5443 45.808C26.2083 46.48 26.6563 47.264 27.2163 47.936C27.5523 48.384 28.0003 48.944 28.3363 49.392C28.7843 49.952 29.4563 50.624 30.2403 50.512C30.8003 50.4 31.1363 49.84 31.6963 49.616C32.7043 49.056 34.0483 49.952 34.0483 51.072C34.0483 51.632 33.7123 52.192 33.8243 52.64C34.0483 53.312 34.8323 53.648 35.6163 53.76C36.1763 53.872 36.8483 53.984 37.4083 54.096C38.3043 54.32 39.4243 54.432 39.8723 53.648C40.0963 53.2 40.0963 52.752 40.2083 52.304C40.5443 51.296 42.1123 50.96 42.8963 51.856C43.3443 52.304 43.4563 53.088 44.0163 53.424C44.5763 53.76 45.2483 53.424 45.8083 53.2C46.3683 52.976 46.9283 52.64 47.4883 52.416C47.9363 52.192 48.3843 51.968 48.7203 51.632C49.0563 51.296 49.2803 50.736 49.1683 50.288C49.0563 49.952 48.8323 49.728 48.6083 49.392C48.3843 48.832 48.3843 48.16 48.8323 47.712C49.2803 47.264 49.8403 47.04 50.4003 47.152C50.9603 47.264 51.4083 47.712 51.9683 47.6C52.7523 47.6 53.2003 46.704 53.4243 46.032L54.0963 44.352C54.3203 43.68 54.5443 42.56 53.8723 42ZM40.4323 34.608C41.2163 34.72 42.0003 35.056 42.5603 35.504C43.0083 35.84 43.4563 36.288 43.7923 36.736C45.4723 39.088 44.8003 42.56 42.2243 44.016C41.6643 44.352 41.1043 44.576 40.5443 44.576C39.9843 44.688 39.4243 44.688 38.7523 44.576C36.2883 44.24 34.3843 42 34.3843 39.536C34.3843 39.312 34.3843 38.976 34.4963 38.752C34.4963 38.416 34.6083 38.08 34.7203 37.856C35.6163 35.728 37.9683 34.272 40.4323 34.608Z" fill="white"/>
</svg>
