<svg width="56" height="56" viewBox="0 0 56 56" fill="none" xmlns="http://www.w3.org/2000/svg">
<g clip-path="url(#clip0_2523_86)">
<path d="M37.9535 56C35.5003 56.0001 33.1343 54.6313 31.9948 52.3033L28.6964 46.1276L26.8253 49.6991C26.7773 49.7908 26.7229 49.8789 26.6625 49.9628C25.4345 51.6669 23.4141 52.2725 21.9183 52.2725L21.8821 52.2724C20.2104 52.2614 18.5458 51.5441 17.3154 50.3042C16.0376 49.0166 15.3339 47.3074 15.3339 45.4911V17.1677C15.3339 14.5844 16.7895 12.3037 19.1325 11.2156C21.4532 10.1378 24.1063 10.4804 26.0745 12.1069L40.4844 22.8379C41.4534 23.5595 41.6539 24.9299 40.9324 25.8989C40.2108 26.8679 38.8404 27.0683 37.8714 26.3468L23.4129 15.5796C23.3771 15.5529 23.3421 15.5252 23.308 15.4964C22.3185 14.6607 21.2725 15.0457 20.9752 15.1836C20.6782 15.3216 19.7091 15.8723 19.7091 17.1677V45.4912C19.7091 46.9007 20.8695 47.8907 21.9111 47.8975H21.9211C22.3468 47.8975 22.8148 47.7212 23.048 47.4821L26.7403 40.4341C26.9249 40.0818 27.202 39.7864 27.5419 39.5799C27.8818 39.3733 28.2716 39.2633 28.6693 39.2617H28.678C29.0743 39.2617 29.4631 39.3693 29.803 39.5731C30.1428 39.7769 30.421 40.0691 30.6077 40.4187L35.8742 50.2795C35.8891 50.3073 35.9033 50.3354 35.9169 50.3638C36.4419 51.4578 37.7651 51.9338 38.8663 51.424C39.136 51.3003 39.3781 51.1237 39.5783 50.9047C39.7784 50.6856 39.9325 50.4286 40.0314 50.1489C40.2284 49.5975 40.2031 49.005 39.9613 48.4743L34.646 39.0159C34.4589 38.6831 34.3622 38.307 34.3655 37.9252C34.3688 37.5433 34.4721 37.169 34.6649 36.8395C34.8578 36.5099 35.1335 36.2365 35.4648 36.0466C35.7961 35.8567 36.1713 35.7568 36.5531 35.7569H44.0528C45.322 35.692 45.8288 34.6925 45.9545 34.3854C46.0836 34.0705 46.4342 32.9681 45.5284 32.0074C44.6997 31.1284 44.7404 29.744 45.6193 28.9152C46.4984 28.0863 47.8828 28.1272 48.7116 29.0062C50.5064 30.9098 51.0015 33.6064 50.0032 36.0436C49.0105 38.4674 46.7798 40.0333 44.1817 40.1304C44.1545 40.1315 44.1273 40.1319 44.1001 40.1319H40.2917L43.8132 46.3984C43.8347 46.4369 43.8553 46.4759 43.8745 46.5156C44.6545 48.1241 44.7528 49.9371 44.1515 51.6205C43.5502 53.3041 42.3257 54.6445 40.7032 55.3949C39.8414 55.7937 38.9031 56.0002 37.9535 56ZM17.8074 8.59057C18.8668 8.00967 19.2545 6.67999 18.6736 5.62068L16.8142 2.23002C16.2333 1.17071 14.9039 0.782976 13.8445 1.36387C12.785 1.94477 12.3973 3.27445 12.9782 4.33376L14.8376 7.72442C15.2355 8.45002 15.9845 8.86051 16.7576 8.86051C17.1131 8.86051 17.4738 8.77366 17.8074 8.59057ZM13.1815 13.5651C13.6657 12.4582 13.161 11.1683 12.0542 10.6841L8.55416 9.15287C7.44727 8.66855 6.15751 9.17343 5.67319 10.2802C5.18898 11.3871 5.69375 12.677 6.80053 13.1612L10.3006 14.6924C10.5766 14.8137 10.8748 14.8763 11.1762 14.8764C12.019 14.8763 12.8221 14.3865 13.1815 13.5651ZM26.8154 6.48934L28.0185 2.87993C28.4006 1.73378 27.7812 0.49488 26.635 0.112938C25.4893 -0.269331 24.2499 0.350285 23.868 1.49644L22.6649 5.10585C22.2828 6.252 22.9022 7.4909 24.0484 7.87284C24.2778 7.94941 24.511 7.98572 24.7404 7.98572C25.6562 7.98572 26.5099 7.40592 26.8154 6.48934ZM32.6046 12.0399L35.5578 9.85233C36.5286 9.13318 36.7326 7.76325 36.0136 6.79243C35.2944 5.8216 33.9244 5.61762 32.9537 6.33666L30.0005 8.52418C29.0297 9.24333 28.8257 10.6133 29.5447 11.5841C29.9739 12.1634 30.6348 12.4697 31.3043 12.4697C31.7568 12.4697 32.2132 12.3298 32.6046 12.0399ZM8.70859 24.3444L11.9899 23.0319C13.1116 22.5833 13.6572 21.3101 13.2085 20.1885C12.7598 19.0666 11.4865 18.521 10.3651 18.9698L7.08381 20.2823C5.96205 20.731 5.41648 22.0041 5.86514 23.1258C6.20727 23.9811 7.02869 24.5015 7.8968 24.5015C8.16729 24.5015 8.44215 24.451 8.70859 24.3444Z" fill="white"/>
</g>
<defs>
<clipPath id="clip0_2523_86">
<rect width="56" height="56" fill="white"/>
</clipPath>
</defs>
</svg>
