<svg width="56" height="56" viewBox="0 0 56 56" fill="none" xmlns="http://www.w3.org/2000/svg">
<g clip-path="url(#clip0_2523_82)">
<path d="M54.714 35.3337L52.79 34.5937C52.6277 34.1145 52.4394 33.6444 52.226 33.1857L53.116 31.1817C53.2772 30.8187 53.3266 30.416 53.2578 30.0248C53.1891 29.6337 53.0053 29.2719 52.73 28.9857L50.124 26.2657C49.8315 25.9605 49.4498 25.7558 49.0337 25.681C48.6175 25.6063 48.1885 25.6653 47.808 25.8497L45.984 26.7317C45.5774 26.5292 45.1601 26.3489 44.734 26.1917L44.018 24.1577C43.892 23.808 43.6704 23.5007 43.3783 23.2709C43.0863 23.0411 42.7355 22.8979 42.366 22.8577V8.70568C42.3649 7.33219 41.8189 6.01525 40.8476 5.04404C39.8764 4.07283 38.5595 3.52674 37.186 3.52568H30.496C30.3467 2.6993 29.9122 1.95147 29.2683 1.41243C28.6244 0.873382 27.8118 0.57728 26.972 0.575684H15.394C13.634 0.575684 12.172 1.85168 11.87 3.52768H5.178C3.80554 3.52927 2.48972 4.07504 1.51906 5.04533C0.548398 6.01562 0.00211707 7.33123 0 8.70368V40.7117C0.00105939 42.0852 0.547148 43.4021 1.51836 44.3733C2.48957 45.3445 3.8065 45.8906 5.18 45.8917H27.98L27.458 47.0657C27.2968 47.4285 27.2473 47.8311 27.3157 48.2221C27.384 48.6132 27.5673 48.9751 27.842 49.2617L30.452 51.9817C31.052 52.6077 31.982 52.7777 32.766 52.3977L34.59 51.5157C34.998 51.7177 35.416 51.8977 35.84 52.0557L36.556 54.0897C36.6936 54.4805 36.9491 54.819 37.2873 55.0583C37.6255 55.2976 38.0297 55.426 38.444 55.4257H42.13C42.5443 55.426 42.9485 55.2976 43.2867 55.0583C43.6249 54.819 43.8804 54.4805 44.018 54.0897L44.734 52.0537C45.158 51.8977 45.576 51.7177 45.984 51.5137L47.808 52.3977C48.1883 52.5826 48.6176 52.642 49.0338 52.5673C49.4501 52.4925 49.8318 52.2874 50.124 51.9817L52.73 49.2617C53.0053 48.9755 53.1891 48.6137 53.2578 48.2225C53.3266 47.8314 53.2772 47.4286 53.116 47.0657L52.226 45.0617C52.44 44.6017 52.626 44.1317 52.79 43.6517L54.714 42.9137C55.0923 42.7691 55.4177 42.5131 55.6474 42.1796C55.877 41.846 56 41.4506 56 41.0457V37.2017C56 36.7967 55.877 36.4013 55.6474 36.0678C55.4177 35.7342 55.0923 35.4782 54.714 35.3337ZM52 39.6697L50.438 40.2697C50.1384 40.3841 49.8706 40.5688 49.6573 40.8082C49.4439 41.0477 49.2912 41.3349 49.212 41.6457C49.0016 42.4793 48.6836 43.2821 48.266 44.0337C48.116 44.3044 48.0307 44.6061 48.0168 44.9153C48.0029 45.2245 48.0608 45.5326 48.186 45.8157L48.914 47.4597L48.242 48.1637L46.798 47.4657C46.4974 47.3214 46.1657 47.2541 45.8326 47.2698C45.4996 47.2855 45.1757 47.3838 44.89 47.5557C44.186 47.9857 43.43 48.3117 42.644 48.5297C42.3332 48.6151 42.0477 48.7745 41.8119 48.9942C41.5761 49.214 41.397 49.4876 41.29 49.7917L40.714 51.4257H39.86L39.286 49.7917C39.1788 49.4874 38.9994 49.2136 38.7633 48.9939C38.5271 48.7741 38.2412 48.6148 37.93 48.5297C37.1397 48.3109 36.3838 47.983 35.684 47.5557C35.3983 47.3838 35.0744 47.2855 34.7414 47.2698C34.4083 47.2541 34.0766 47.3214 33.776 47.4657L32.332 48.1637L31.658 47.4597L32.388 45.8157C32.5132 45.5326 32.5711 45.2245 32.5572 44.9153C32.5433 44.6061 32.458 44.3044 32.308 44.0337C31.8903 43.2812 31.5716 42.4779 31.36 41.6437C31.2809 41.3334 31.1284 41.0467 30.9154 40.8076C30.7024 40.5685 30.4351 40.384 30.136 40.2697L28.576 39.6697V38.5757L30.136 37.9777C30.4351 37.8634 30.7024 37.6789 30.9154 37.4398C31.1284 37.2007 31.2809 36.914 31.36 36.6037C31.5716 35.7695 31.8903 34.9661 32.308 34.2137C32.614 33.6657 32.642 33.0037 32.388 32.4317L31.658 30.7877L32.332 30.0837L33.776 30.7817C34.388 31.0737 35.102 31.0417 35.684 30.6917C36.388 30.2617 37.144 29.9357 37.93 29.7177C38.2412 29.6326 38.5271 29.4733 38.7633 29.2535C38.9994 29.0337 39.1788 28.76 39.286 28.4557L39.86 26.8217H40.714L41.29 28.4557C41.397 28.7597 41.5761 29.0333 41.8119 29.2531C42.0477 29.4729 42.3332 29.6323 42.644 29.7177C43.43 29.9357 44.184 30.2617 44.89 30.6917C45.472 31.0417 46.186 31.0737 46.798 30.7817L48.242 30.0837L48.914 30.7877L48.186 32.4317C47.932 33.0057 47.96 33.6657 48.266 34.2137C48.684 34.9637 49.002 35.7697 49.212 36.6017C49.372 37.2317 49.83 37.7457 50.438 37.9777L52 38.5777V39.6697ZM4 40.7117V8.70368C4 8.39073 4.12432 8.09059 4.34561 7.8693C4.56691 7.648 4.86704 7.52368 5.18 7.52368H11.804V17.4737C11.804 18.7637 12.502 19.9597 13.624 20.5977C14.746 21.2337 16.134 21.2177 17.242 20.5517L21.182 18.1877L25.126 20.5517C25.6704 20.8796 26.2923 21.0567 26.9278 21.0648C27.5633 21.0729 28.1894 20.9117 28.742 20.5977C29.864 19.9597 30.562 18.7637 30.562 17.4737V7.52568H37.188C37.5003 7.52621 37.7996 7.65049 38.0204 7.8713C38.2412 8.0921 38.3655 8.39142 38.366 8.70368V22.8337C37.9663 22.8474 37.58 22.981 37.2572 23.2171C36.9345 23.4532 36.6901 23.7809 36.556 24.1577L35.84 26.1937C35.416 26.3497 34.998 26.5297 34.59 26.7337L32.766 25.8497C32.3858 25.6658 31.9571 25.607 31.5414 25.6818C31.1257 25.7565 30.7444 25.9609 30.452 26.2657L27.842 28.9857C27.5673 29.2723 27.384 29.6341 27.3157 30.0252C27.2473 30.4163 27.2968 30.8189 27.458 31.1817L28.346 33.1857C28.134 33.6457 27.946 34.1157 27.786 34.5957L25.86 35.3337C25.4816 35.478 25.1559 35.7339 24.9263 36.0675C24.6966 36.4011 24.5738 36.7967 24.574 37.2017V41.0457C24.574 41.3477 24.662 41.6277 24.786 41.8897H5.178C4.86574 41.8892 4.56642 41.7649 4.34561 41.5441C4.12481 41.3233 4.00053 41.0239 4 40.7117ZM26.56 4.57368V16.7497L23.032 14.6297C22.4737 14.295 21.835 14.1182 21.184 14.1182C20.533 14.1182 19.8943 14.295 19.336 14.6297L15.804 16.7497V4.57368H26.56Z" fill="white"/>
<path d="M40.2886 32.2336C36.6006 32.2336 33.6006 35.3236 33.6006 39.1236C33.6006 42.9236 36.6006 46.0136 40.2886 46.0136C43.9766 46.0136 46.9746 42.9216 46.9746 39.1236C46.9746 35.3256 43.9746 32.2336 40.2886 32.2336ZM40.2886 42.0136C38.8046 42.0136 37.6006 40.7156 37.6006 39.1236C37.6006 37.5316 38.8046 36.2336 40.2886 36.2336C41.7726 36.2336 42.9746 37.5296 42.9746 39.1236C42.9746 40.7176 41.7706 42.0136 40.2886 42.0136Z" fill="white"/>
</g>
<defs>
<clipPath id="clip0_2523_82">
<rect width="56" height="56" fill="white"/>
</clipPath>
</defs>
</svg>
