<svg width="63" height="40" viewBox="0 0 63 40" fill="none" xmlns="http://www.w3.org/2000/svg">
<rect x="0.5" y="0.5" width="62" height="39" rx="19.5" stroke="#FFFFFF"/>
<path d="M20.0112 30.99C19.578 30.9877 19.1631 30.8146 18.8568 30.5082C18.5504 30.2019 18.3773 29.787 18.375 29.3538V15.8963C18.3773 14.9989 18.7348 14.1389 19.3694 13.5044C20.0039 12.8698 20.8639 12.5123 21.7613 12.51H37.73C38.6289 12.51 39.4911 12.8665 40.1275 13.5013C40.764 14.1361 41.1227 14.9974 41.125 15.8963V24.865C41.125 25.7639 40.7685 26.6261 40.1337 27.2625C39.4989 27.899 38.6376 28.2577 37.7387 28.26H24.4212C24.27 28.2612 24.123 28.3102 24.0012 28.4L21 30.6663C20.7138 30.8777 20.3671 30.9913 20.0112 30.99ZM21.7613 14.26C21.328 14.2623 20.9131 14.4354 20.6068 14.7418C20.3004 15.0482 20.1273 15.463 20.125 15.8963V29.135L22.9513 27C23.3765 26.6842 23.8915 26.5125 24.4212 26.51H37.73C38.1663 26.51 38.5847 26.3367 38.8932 26.0282C39.2017 25.7197 39.375 25.3013 39.375 24.865V15.8963C39.3727 15.463 39.1996 15.0482 38.8932 14.7418C38.5869 14.4354 38.172 14.2623 37.7387 14.26H21.7613Z" fill="#FFFFFF"/>
<path d="M33.1973 21.3387C33.6805 21.3387 34.0723 20.947 34.0723 20.4637C34.0723 19.9805 33.6805 19.5887 33.1973 19.5887C32.714 19.5887 32.3223 19.9805 32.3223 20.4637C32.3223 20.947 32.714 21.3387 33.1973 21.3387Z" fill="#FFFFFF"/>
<path d="M29.8027 21.3387C30.286 21.3387 30.6777 20.947 30.6777 20.4637C30.6777 19.9805 30.286 19.5887 29.8027 19.5887C29.3195 19.5887 28.9277 19.9805 28.9277 20.4637C28.9277 20.947 29.3195 21.3387 29.8027 21.3387Z" fill="#FFFFFF"/>
<path d="M26.3027 21.3387C26.786 21.3387 27.1777 20.947 27.1777 20.4637C27.1777 19.9805 26.786 19.5887 26.3027 19.5887C25.8195 19.5887 25.4277 19.9805 25.4277 20.4637C25.4277 20.947 25.8195 21.3387 26.3027 21.3387Z" fill="#FFFFFF"/>
<path d="M43.75 22.135C43.5179 22.135 43.2954 22.0428 43.1313 21.8787C42.9672 21.7146 42.875 21.4921 42.875 21.26V12.3963C42.8727 11.963 42.6996 11.5482 42.3932 11.2418C42.0869 10.9354 41.672 10.7623 41.2387 10.76H23.625C23.3929 10.76 23.1704 10.6678 23.0063 10.5037C22.8422 10.3396 22.75 10.1171 22.75 9.88501C22.75 9.65295 22.8422 9.43039 23.0063 9.26629C23.1704 9.1022 23.3929 9.01001 23.625 9.01001H41.2387C42.1361 9.01232 42.9961 9.36983 43.6306 10.0044C44.2652 10.6389 44.6227 11.4989 44.625 12.3963V21.26C44.625 21.4921 44.5328 21.7146 44.3687 21.8787C44.2046 22.0428 43.9821 22.135 43.75 22.135Z" fill="#FFFFFF"/>
</svg>
