<svg width="46" height="56" viewBox="0 0 46 56" fill="none" xmlns="http://www.w3.org/2000/svg">
<path fill-rule="evenodd" clip-rule="evenodd" d="M45.7902 4.55811V54.0462C45.7901 54.4016 45.693 54.7502 45.5094 55.0545C45.3258 55.3588 45.0627 55.6072 44.7484 55.773C44.4342 55.9392 44.0805 56.0163 43.7257 55.9961C43.3709 55.9759 43.0283 55.8591 42.7349 55.6584L36.2364 51.2228L30.092 55.6325C29.3549 56.1638 28.3495 56.1143 27.6671 55.5152L22.9996 51.4338L18.332 55.5152C17.6496 56.1143 16.6442 56.1638 15.9072 55.6325L9.76279 51.2228L3.26427 55.6584C2.97093 55.8591 2.62835 55.9758 2.27351 55.996C1.91867 56.0162 1.56506 55.9391 1.25084 55.773C0.936533 55.6072 0.67342 55.3588 0.489835 55.0545C0.30625 54.7502 0.209148 54.4016 0.208984 54.0462V4.55811C0.209087 2.04204 2.24847 0 4.7672 0H41.2321C43.7508 0 45.7902 2.04204 45.7902 4.55811ZM41.8833 4.55811C41.8832 4.38543 41.8146 4.21984 41.6925 4.09774C41.5704 3.97563 41.4048 3.90701 41.2321 3.90696H4.7672C4.59452 3.90701 4.42893 3.97563 4.30682 4.09774C4.18472 4.21984 4.1161 4.38543 4.11604 4.55811V50.3476L8.68978 47.2247C9.02061 46.9984 9.4131 46.8795 9.81389 46.8842C10.2147 46.8888 10.6043 47.0168 10.9298 47.2508L16.9256 51.5562L21.713 47.3679C22.0689 47.0557 22.5262 46.8835 22.9997 46.8835C23.4731 46.8835 23.9304 47.0557 24.2864 47.3679L29.0737 51.5562L35.0695 47.2508C35.395 47.0168 35.7846 46.8888 36.1854 46.8842C36.5862 46.8795 36.9787 46.9984 37.3095 47.2247L41.8833 50.3476V4.55811Z" fill="white"/>
<path fill-rule="evenodd" clip-rule="evenodd" d="M12.5814 14.3254C11.5031 14.3254 10.6279 13.4503 10.6279 12.3719C10.6279 11.2936 11.5031 10.4185 12.5814 10.4185H33.4185C34.4968 10.4185 35.372 11.2936 35.372 12.3719C35.372 13.4503 34.4968 14.3254 33.4185 14.3254H12.5814ZM12.5814 24.744C11.5031 24.744 10.6279 23.8688 10.6279 22.7905C10.6279 21.7122 11.5031 20.837 12.5814 20.837H33.4185C34.4968 20.837 35.372 21.7122 35.372 22.7905C35.372 23.8688 34.4968 24.744 33.4185 24.744H12.5814ZM12.5814 35.1625C11.5031 35.1625 10.6279 34.2873 10.6279 33.209C10.6279 32.1307 11.5031 31.2556 12.5814 31.2556H23C24.0783 31.2556 24.9534 32.1307 24.9534 33.209C24.9534 34.2873 24.0783 35.1625 23 35.1625H12.5814Z" fill="white"/>
</svg>
