<svg width="56" height="56" viewBox="0 0 56 56" fill="none" xmlns="http://www.w3.org/2000/svg">
<g clip-path="url(#clip0_2523_59)">
<path d="M24.2641 45.9653C13.1113 45.4952 4.375 36.3752 4.375 25.2029C4.375 13.7441 13.6975 4.42163 25.1562 4.42163C34.8187 4.42163 43.3503 11.2564 45.4427 20.6729C45.7048 21.8523 46.8729 22.5958 48.0526 22.3339C49.232 22.0718 49.9756 20.9033 49.7136 19.724C48.4918 14.2261 45.3981 9.2326 41.002 5.66347C36.5405 2.04141 30.9131 0.0466309 25.1562 0.0466309C18.4367 0.0466309 12.1195 2.66332 7.36805 7.41468C2.61669 12.1661 0 18.4833 0 25.2029C0 31.7346 2.492 37.9247 7.01673 42.6327C11.5283 47.3268 17.588 50.0628 24.0798 50.3365C24.1112 50.3378 24.1423 50.3385 24.1735 50.3385C25.3392 50.3385 26.308 49.4187 26.3575 48.243C26.4085 47.036 25.4711 46.0162 24.2641 45.9653Z" fill="white"/>
<path d="M25.156 8.81274C23.9479 8.81274 22.9685 9.79209 22.9685 11.0002V24.2969L15.9015 31.3639C15.0472 32.2181 15.0472 33.6031 15.9015 34.4575C16.3286 34.8846 16.8884 35.0982 17.4483 35.0982C18.0082 35.0982 18.5679 34.8846 18.9951 34.4575L26.7028 26.7497C26.906 26.5466 27.0671 26.3054 27.177 26.04C27.287 25.7746 27.3435 25.4902 27.3435 25.2029V11.0002C27.3435 9.79209 26.3642 8.81274 25.156 8.81274ZM51.4996 27.2095C49.2188 26.2786 46.2335 25.7659 43.0936 25.7659C39.9538 25.7659 36.9685 26.2786 34.6877 27.2095C30.7721 28.8077 30.1874 31.1027 30.1874 32.3284V49.3909C30.1874 50.6166 30.7721 52.9115 34.6877 54.5097C36.9685 55.4406 39.9538 55.9534 43.0936 55.9534C46.2335 55.9534 49.2188 55.4406 51.4996 54.5097C55.4152 52.9115 55.9999 50.6165 55.9999 49.3909V32.3284C55.9999 31.1026 55.4152 28.8077 51.4996 27.2095ZM51.6249 49.3215C51.2635 49.9941 48.3225 51.5784 43.0936 51.5784C37.8648 51.5784 34.9238 49.9942 34.5624 49.3215V45.8158C34.6045 45.8336 34.6448 45.8515 34.6877 45.8691C36.9685 46.8 39.9538 47.3127 43.0936 47.3127C43.851 47.3127 44.609 47.2828 45.3468 47.2236C46.551 47.127 47.449 46.0724 47.3523 44.8681C47.2556 43.6638 46.2025 42.7664 44.9968 42.8626C44.375 42.9125 43.7347 42.9379 43.0936 42.9379C37.8633 42.9379 34.9225 41.353 34.5624 40.6807V37.3942C34.6045 37.4119 34.6448 37.4298 34.6877 37.4474C36.9685 38.3783 39.9538 38.8911 43.0936 38.8911C43.851 38.8911 44.609 38.8611 45.3468 38.8019C46.551 38.7054 47.449 37.6508 47.3523 36.4464C47.2556 35.2421 46.2025 34.3446 44.9968 34.4409C44.375 34.4908 43.7347 34.5162 43.0936 34.5162C38.0359 34.5162 35.1194 33.0343 34.6068 32.3286C35.1202 31.6227 38.0368 30.1412 43.0936 30.1412C48.3225 30.1412 51.2635 31.7254 51.6249 32.398V49.3215Z" fill="white"/>
</g>
<defs>
<clipPath id="clip0_2523_59">
<rect width="56" height="56" fill="white"/>
</clipPath>
</defs>
</svg>
