<svg width="42" height="56" viewBox="0 0 42 56" fill="none" xmlns="http://www.w3.org/2000/svg">
<path d="M37.6797 10.3911H34.9453V3.82709C34.9453 2.60241 34.3528 1.44282 33.3605 0.725211C32.3681 0.00760125 31.0812 -0.192008 29.9181 0.191679L3.12113 9.02984C2.35562 9.28129 1.68917 9.76828 1.21702 10.4212C0.744868 11.0741 0.491175 11.8596 0.492191 12.6654V52.1718C0.492191 54.2826 2.20949 55.9999 4.32032 55.9999H37.6797C39.7905 55.9999 41.5078 54.2826 41.5078 52.1718V14.2192C41.5078 12.1085 39.7905 10.3911 37.6797 10.3911ZM38.2266 52.1718C38.2266 52.4734 37.9812 52.7187 37.6797 52.7187H4.32032C4.01877 52.7187 3.77344 52.4734 3.77344 52.1718V14.2192C3.77344 13.9177 4.01877 13.6724 4.32032 13.6724H37.6797C37.9812 13.6724 38.2266 13.9177 38.2266 14.2192V52.1718ZM30.9459 3.30777C31.1769 3.23165 31.3531 3.32287 31.4378 3.38401C31.5223 3.44515 31.6642 3.58395 31.6642 3.82709V10.3912H9.46947L30.9459 3.30777Z" fill="white"/>
<path d="M10.0625 32.6461H31.9375C32.8436 32.6461 33.5781 31.9116 33.5781 31.0055C33.5781 30.0995 32.8436 29.3649 31.9375 29.3649H31.4623C30.755 24.837 27.1685 21.2505 22.6406 20.5433V19.7212C22.6406 18.8151 21.9061 18.0806 21 18.0806C20.0939 18.0806 19.3594 18.8151 19.3594 19.7212V20.5433C14.8315 21.2505 11.245 24.837 10.5377 29.3649H10.0625C9.15644 29.3649 8.42188 30.0995 8.42188 31.0055C8.42188 31.9116 9.15644 32.6461 10.0625 32.6461ZM21 23.6973C24.4659 23.6973 27.3759 26.1226 28.1226 29.3649H13.8774C14.6241 26.1226 17.5342 23.6973 21 23.6973ZM10.6987 37.0785C9.79267 37.0785 9.05811 37.813 9.05811 38.7191C9.05811 39.6251 9.79267 40.3597 10.6987 40.3597H18.5737C19.4798 40.3597 20.2144 39.6251 20.2144 38.7191C20.2144 37.813 19.4798 37.0785 18.5737 37.0785H10.6987ZM31.5273 43.641H10.4727C9.56659 43.641 8.83203 44.3755 8.83203 45.2816C8.83203 46.1876 9.56659 46.9222 10.4727 46.9222H31.5273C32.4334 46.9222 33.168 46.1876 33.168 45.2816C33.168 44.3755 32.4334 43.641 31.5273 43.641Z" fill="white"/>
</svg>
