<svg width="166" height="68" viewBox="0 0 166 68" fill="none" xmlns="http://www.w3.org/2000/svg">
<g clip-path="url(#clip0_2526_121)">
<path d="M165.301 0.875489H156.17C154.922 0.875248 153.694 1.1951 152.592 1.80708C151.489 2.41906 150.547 3.30453 149.847 4.38607L137.635 23.2523C137.56 23.3681 137.459 23.4628 137.341 23.5283C137.222 23.5938 137.091 23.6281 136.957 23.6281C136.823 23.6281 136.692 23.5938 136.573 23.5283C136.455 23.4628 136.354 23.3681 136.279 23.2523L124.068 4.38607C123.368 3.3044 122.426 2.41883 121.324 1.80684C120.221 1.19484 118.993 0.875067 117.745 0.875489H108.614L130.367 34.4836L108.734 67.9033H117.865C119.113 67.9035 120.341 67.5837 121.443 66.9717C122.546 66.3597 123.488 65.4742 124.188 64.3927L136.279 45.7129C136.354 45.5971 136.455 45.5024 136.573 45.4369C136.692 45.3714 136.823 45.3371 136.957 45.3371C137.091 45.3371 137.222 45.3714 137.341 45.4369C137.459 45.5024 137.56 45.5971 137.635 45.7129L149.726 64.3927C150.426 65.4745 151.368 66.3601 152.471 66.9721C153.573 67.5841 154.802 67.9038 156.05 67.9033H165.181L143.547 34.4836L165.301 0.875489ZM89.828 7.73118V67.9033H94.192C95.0518 67.9034 95.9032 67.7262 96.6976 67.3816C97.492 67.0371 98.2138 66.532 98.8217 65.8953C99.4297 65.2586 99.9119 64.5026 100.241 63.6707C100.57 62.8387 100.739 61.947 100.739 61.0466V0.875489H96.375C95.5153 0.875351 94.664 1.05258 93.8696 1.39705C93.0753 1.74152 92.3536 2.24648 91.7456 2.8831C91.1377 3.51973 90.6554 4.27554 90.3264 5.10738C89.9973 5.93921 89.828 6.83079 89.828 7.73118ZM81.83 0.875489H77.945C75.8694 0.87514 73.8553 1.61355 72.2331 2.96961C70.6109 4.32566 69.4768 6.21884 69.017 8.33862L60.33 48.3375L52.725 10.9988C51.318 4.09806 44.557 -0.556183 37.639 1.44523C33.232 2.7198 29.965 6.61893 29.012 11.3004L21.485 48.2872L12.813 8.34071C12.3522 6.22092 11.2176 4.32786 9.59526 2.9716C7.97289 1.61534 5.95884 0.876288 3.883 0.875489H0L14.555 67.9001H20.07C25.074 67.9001 29.398 64.2356 30.442 59.1101L39.747 13.3804C39.861 12.8127 40.347 12.4022 40.9 12.4022C41.452 12.4022 41.938 12.8127 42.053 13.3804L51.365 59.1132C51.8718 61.6004 53.1785 63.8301 55.0666 65.4295C56.9546 67.0288 59.3097 67.901 61.738 67.9001H67.271L81.83 0.875489Z" fill="black"/>
</g>
<defs>
<clipPath id="clip0_2526_121">
<rect width="166" height="68" fill="white"/>
</clipPath>
</defs>
</svg>
