<svg width="20" height="16" viewBox="0 0 20 16" fill="none" xmlns="http://www.w3.org/2000/svg">
<path d="M19 1.79712H1C0.586 1.79712 0.25 1.41446 0.25 0.942974C0.25 0.471486 0.586 0.088829 1 0.088829H19C19.414 0.088829 19.75 0.471486 19.75 0.942974C19.75 1.41446 19.414 1.79712 19 1.79712ZM19.75 7.77613C19.75 7.30464 19.414 6.92199 19 6.92199H1C0.586 6.92199 0.25 7.30464 0.25 7.77613C0.25 8.24762 0.586 8.63028 1 8.63028H19C19.414 8.63028 19.75 8.24762 19.75 7.77613ZM19.75 14.6093C19.75 14.1378 19.414 13.7551 19 13.7551H10C9.586 13.7551 9.25 14.1378 9.25 14.6093C9.25 15.0808 9.586 15.4634 10 15.4634H19C19.414 15.4634 19.75 15.0808 19.75 14.6093Z" fill="white"/>
</svg>
