<svg width="18" height="20" viewBox="0 0 18 20" fill="none" xmlns="http://www.w3.org/2000/svg">
    <path d="M15.5 5.25H13.25V4.5C13.25 2.156 11.344 0.25 9 0.25C6.656 0.25 4.75 2.156 4.75 4.5V5.25H2.5C1.26 5.25 0.25 6.259 0.25 7.5V16C0.25 18.418 1.582 19.75 4 19.75H14C16.418 19.75 17.75 18.418 17.75 16V7.5C17.75 6.259 16.74 5.25 15.5 5.25ZM6.25 4.5C6.25 2.983 7.483 1.75 9 1.75C10.517 1.75 11.75 2.983 11.75 4.5V5.25H6.25V4.5ZM16.25 16C16.25 17.577 15.577 18.25 14 18.25H4C2.423 18.25 1.75 17.577 1.75 16V7.5C1.75 7.086 2.087 6.75 2.5 6.75H4.75V9C4.75 9.414 5.086 9.75 5.5 9.75C5.914 9.75 6.25 9.414 6.25 9V6.75H11.75V9C11.75 9.414 12.086 9.75 12.5 9.75C12.914 9.75 13.25 9.414 13.25 9V6.75H15.5C15.913 6.75 16.25 7.086 16.25 7.5V16Z" fill="white" />
</svg>