<svg width="24" height="24" viewBox="0 0 24 24" fill="none" xmlns="http://www.w3.org/2000/svg">
<g clip-path="url(#clip0_2353_105)">
<path d="M11.9999 0C5.38321 0 0 5.38309 0 11.9999C0 18.6168 5.38321 24 11.9999 24C18.6167 24 23.9999 18.6168 23.9999 11.9999C23.9999 5.38309 18.6168 0 11.9999 0ZM18.8905 9.97305L11.3516 17.512C11.1943 17.6701 11.0073 17.7954 10.8014 17.8807C10.5954 17.966 10.3745 18.0096 10.1516 18.009C9.69832 18.009 9.27221 17.8326 8.95165 17.512L5.10936 13.6697C4.95128 13.5125 4.82594 13.3255 4.74061 13.1195C4.65528 12.9136 4.61165 12.6927 4.61225 12.4698C4.61225 12.0163 4.78881 11.5902 5.10936 11.2697C5.26655 11.1116 5.45355 10.9862 5.65953 10.9009C5.86551 10.8155 6.08637 10.7719 6.30932 10.7726C6.7626 10.7726 7.18884 10.9491 7.50927 11.2698L10.1515 13.9119L16.4904 7.57301C16.6476 7.41494 16.8346 7.28962 17.0405 7.20432C17.2465 7.11901 17.4674 7.0754 17.6903 7.07602C18.1436 7.07602 18.5697 7.25245 18.8903 7.57301C19.5522 8.23491 19.5522 9.3114 18.8905 9.97305Z" fill="#9FE870"/>
</g>
<defs>
<clipPath id="clip0_2353_105">
<rect width="24" height="24" fill="white"/>
</clipPath>
</defs>
</svg>
