<svg width="26" height="26" viewBox="0 0 26 26" fill="none" xmlns="http://www.w3.org/2000/svg">
<mask id="mask0_2347_2784" style="mask-type:alpha" maskUnits="userSpaceOnUse" x="0" y="0" width="26" height="26">
<rect width="26" height="26" fill="#D9D9D9"/>
</mask>
<g mask="url(#mask0_2347_2784)">
<path d="M24.8054 3.03428L16.0559 24.564C15.8593 25.0228 15.5193 25.3054 15.0359 25.4119C14.5526 25.5184 14.1307 25.3914 13.7702 25.031L0.990024 12.2508C0.629557 11.8903 0.502574 11.4684 0.609076 10.985C0.715577 10.5017 0.998216 10.1617 1.45699 9.96508L22.9867 1.21556C23.5766 0.986172 24.0845 1.08448 24.5105 1.51049C24.9365 1.93649 25.0348 2.44443 24.8054 3.03428ZM14.2618 21.5901L20.9959 5.02504L4.43084 11.7592L7.87166 15.2L15.2449 10.7761L10.8209 18.1493L14.2618 21.5901Z" fill="black"/>
</g>
</svg>
